<svg version="1.1" xmlns="http://www.w3.org/2000/svg" width="918" height="612">

<path d="M0 0 C1.14855469 -0.03673828 1.14855469 -0.03673828 2.3203125 -0.07421875 C15.11400654 -0.13734553 25.91275179 5.59786015 36.75 11.8125 C38.02297326 12.53016602 39.29658511 13.2467004 40.57080078 13.9621582 C43.75347787 15.75268716 46.92808949 17.55698813 50.10058594 19.36547852 C52.74946336 20.87251045 55.4059436 22.36593132 58.0625 23.859375 C62.7494295 26.49676584 67.428933 29.14696478 72.10546875 31.80273438 C76.81744423 34.47772751 81.53358867 37.14533802 86.25 39.8125 C87.18682617 40.34278809 88.12365234 40.87307617 89.08886719 41.41943359 C94.19060566 44.30427275 99.30073691 47.17316353 104.421875 50.0234375 C149.2194108 74.96131689 149.2194108 74.96131689 156.42048931 99.21201611 C156.94660306 101.71575383 157.01019712 104.0173086 157.02217102 106.57649231 C157.03290398 108.15512054 157.03290398 108.15512054 157.04385376 109.76564026 C157.04654266 110.91523727 157.04923157 112.06483429 157.05200195 113.24926758 C157.05857315 114.46446075 157.06514435 115.67965393 157.07191467 116.93167114 C157.09165279 120.96096037 157.1033214 124.99020973 157.11328125 129.01953125 C157.11733169 130.41220303 157.1214487 131.80487462 157.12563133 133.19754601 C157.14468405 139.74948791 157.15890862 146.30141862 157.1672433 152.85338289 C157.17698263 160.38320375 157.20321452 167.91272806 157.24374419 175.44244462 C157.27407825 181.28135493 157.28872885 187.12018115 157.29202431 192.95916861 C157.29435739 196.43672247 157.30308513 199.91395965 157.32848549 203.39142799 C157.57428086 238.90097285 157.57428086 238.90097285 146.875 253.375 C146.32328125 254.13167969 145.7715625 254.88835937 145.203125 255.66796875 C135.60812521 267.57970995 120.33917918 273.96175736 107.1652832 281.15844727 C99.32755389 285.44333291 91.56881203 289.83476386 83.875 294.375 C72.07980402 301.32183338 60.11790832 307.94254386 48.10519409 314.50315857 C44.23025756 316.62249219 40.37623831 318.77609641 36.53125 320.94921875 C35.54979004 321.49884277 34.56833008 322.0484668 33.55712891 322.61474609 C31.7625552 323.62019433 29.97264968 324.63405033 28.18896484 325.65869141 C15.47685687 332.72886601 2.01236578 334.09166164 -12.2421875 331.89453125 C-23.1622768 328.77676662 -33.30584001 321.93409008 -43.125 316.375 C-45.01027982 315.31355898 -46.89569497 314.25235831 -48.78125 313.19140625 C-52.593398 311.04268103 -56.40135685 308.88673029 -60.20703125 306.7265625 C-66.33294225 303.2519825 -72.47770551 299.81156783 -78.625 296.375 C-87.78521265 291.25208207 -96.9343208 286.11010939 -106.06298828 280.93115234 C-110.2952861 278.53119749 -114.53177281 276.14273447 -118.80078125 273.80859375 C-136.13677857 264.31043994 -147.81922607 253.92527004 -153.66784668 234.46551514 C-155.35468826 228.19162029 -155.56192078 222.26584911 -155.54492188 215.79785156 C-155.55339142 214.59138977 -155.56186096 213.38492798 -155.57058716 212.14190674 C-155.58983883 208.86469377 -155.59574406 205.58783348 -155.59383965 202.31057453 C-155.59371897 199.55767066 -155.60232274 196.80481851 -155.61061716 194.05192924 C-155.6297796 187.54662783 -155.63276183 181.04145469 -155.62597656 174.53613281 C-155.61934579 167.86551832 -155.64217723 161.19545817 -155.67929029 154.52495599 C-155.71016745 148.76230743 -155.72132786 142.99983551 -155.71745348 137.23710608 C-155.71540391 133.81104007 -155.72058206 130.38540553 -155.74534607 126.95941925 C-155.8508455 108.87958531 -155.84459298 93.1374693 -144.125 78.375 C-143.67511719 77.76398438 -143.22523438 77.15296875 -142.76171875 76.5234375 C-135.97746406 67.84723573 -125.69315141 62.83508678 -116.17907715 57.69598389 C-112.95513372 55.95413517 -109.74204892 54.19241523 -106.52734375 52.43359375 C-105.56847763 51.9099826 -105.56847763 51.9099826 -104.59024048 51.37579346 C-99.1471755 48.39945552 -93.75142591 45.3451189 -88.375 42.25 C-79.81344392 37.32712614 -71.20908985 32.48483547 -62.58569336 27.67114258 C-57.35193356 24.74795247 -52.12594852 21.81266958 -46.91796875 18.84375 C-13.89850675 0.02270998 -13.89850675 0.02270998 0 0 Z " fill="#0C1925" transform="translate(458.125,131.625)" data-index="1" style="opacity: 1;"></path>
<path d="M0 0 C1.14855469 -0.03673828 1.14855469 -0.03673828 2.3203125 -0.07421875 C15.11400654 -0.13734553 25.91275179 5.59786015 36.75 11.8125 C38.02297326 12.53016602 39.29658511 13.2467004 40.57080078 13.9621582 C43.75347787 15.75268716 46.92808949 17.55698813 50.10058594 19.36547852 C52.74946336 20.87251045 55.4059436 22.36593132 58.0625 23.859375 C62.7494295 26.49676584 67.428933 29.14696478 72.10546875 31.80273438 C76.81744423 34.47772751 81.53358867 37.14533802 86.25 39.8125 C87.18682617 40.34278809 88.12365234 40.87307617 89.08886719 41.41943359 C94.19060566 44.30427275 99.30073691 47.17316353 104.421875 50.0234375 C149.2194108 74.96131689 149.2194108 74.96131689 156.42048931 99.21201611 C156.94660306 101.71575383 157.01019712 104.0173086 157.02217102 106.57649231 C157.03290398 108.15512054 157.03290398 108.15512054 157.04385376 109.76564026 C157.04654266 110.91523727 157.04923157 112.06483429 157.05200195 113.24926758 C157.05857315 114.46446075 157.06514435 115.67965393 157.07191467 116.93167114 C157.09165279 120.96096037 157.1033214 124.99020973 157.11328125 129.01953125 C157.11733169 130.41220303 157.1214487 131.80487462 157.12563133 133.19754601 C157.14468405 139.74948791 157.15890862 146.30141862 157.1672433 152.85338289 C157.17698263 160.38320375 157.20321452 167.91272806 157.24374419 175.44244462 C157.27407825 181.28135493 157.28872885 187.12018115 157.29202431 192.95916861 C157.29435739 196.43672247 157.30308513 199.91395965 157.32848549 203.39142799 C157.57428086 238.90097285 157.57428086 238.90097285 146.875 253.375 C146.32328125 254.13167969 145.7715625 254.88835937 145.203125 255.66796875 C135.60812521 267.57970995 120.33917918 273.96175736 107.1652832 281.15844727 C99.32755389 285.44333291 91.56881203 289.83476386 83.875 294.375 C72.07980402 301.32183338 60.11790832 307.94254386 48.10519409 314.50315857 C44.23025756 316.62249219 40.37623831 318.77609641 36.53125 320.94921875 C35.54979004 321.49884277 34.56833008 322.0484668 33.55712891 322.61474609 C31.7625552 323.62019433 29.97264968 324.63405033 28.18896484 325.65869141 C15.47685687 332.72886601 2.01236578 334.09166164 -12.2421875 331.89453125 C-23.1622768 328.77676662 -33.30584001 321.93409008 -43.125 316.375 C-45.01027982 315.31355898 -46.89569497 314.25235831 -48.78125 313.19140625 C-52.593398 311.04268103 -56.40135685 308.88673029 -60.20703125 306.7265625 C-66.33294225 303.2519825 -72.47770551 299.81156783 -78.625 296.375 C-87.78521265 291.25208207 -96.9343208 286.11010939 -106.06298828 280.93115234 C-110.2952861 278.53119749 -114.53177281 276.14273447 -118.80078125 273.80859375 C-136.13677857 264.31043994 -147.81922607 253.92527004 -153.66784668 234.46551514 C-155.35468826 228.19162029 -155.56192078 222.26584911 -155.54492188 215.79785156 C-155.55339142 214.59138977 -155.56186096 213.38492798 -155.57058716 212.14190674 C-155.58983883 208.86469377 -155.59574406 205.58783348 -155.59383965 202.31057453 C-155.59371897 199.55767066 -155.60232274 196.80481851 -155.61061716 194.05192924 C-155.6297796 187.54662783 -155.63276183 181.04145469 -155.62597656 174.53613281 C-155.61934579 167.86551832 -155.64217723 161.19545817 -155.67929029 154.52495599 C-155.71016745 148.76230743 -155.72132786 142.99983551 -155.71745348 137.23710608 C-155.71540391 133.81104007 -155.72058206 130.38540553 -155.74534607 126.95941925 C-155.8508455 108.87958531 -155.84459298 93.1374693 -144.125 78.375 C-143.67511719 77.76398438 -143.22523438 77.15296875 -142.76171875 76.5234375 C-135.97746406 67.84723573 -125.69315141 62.83508678 -116.17907715 57.69598389 C-112.95513372 55.95413517 -109.74204892 54.19241523 -106.52734375 52.43359375 C-105.56847763 51.9099826 -105.56847763 51.9099826 -104.59024048 51.37579346 C-99.1471755 48.39945552 -93.75142591 45.3451189 -88.375 42.25 C-79.81344392 37.32712614 -71.20908985 32.48483547 -62.58569336 27.67114258 C-57.35193356 24.74795247 -52.12594852 21.81266958 -46.91796875 18.84375 C-13.89850675 0.02270998 -13.89850675 0.02270998 0 0 Z M-27.25 28.3125 C-28.29551025 28.88170166 -29.34102051 29.45090332 -30.41821289 30.03735352 C-39.41934767 34.95413294 -48.35258301 39.98727328 -57.26953125 45.0546875 C-63.41333914 48.54499254 -69.58111141 51.99178038 -75.75 55.4375 C-86.13077114 61.2439253 -96.49226639 67.08166601 -106.79150391 73.03173828 C-109.01524844 74.31182223 -111.24725077 75.57638671 -113.48046875 76.83984375 C-125.37961459 83.64918154 -132.90244432 89.91108701 -137.125 103.375 C-137.76246462 107.61527858 -137.80127602 111.75501151 -137.75610352 116.03735352 C-137.76325882 117.24063293 -137.77041412 118.44391235 -137.77778625 119.68365479 C-137.79167973 122.94634515 -137.78348866 126.2079859 -137.76369596 129.47061658 C-137.74714876 132.9074155 -137.75614426 136.34416841 -137.76121521 139.7809906 C-137.76571784 145.5480556 -137.74997953 151.31479433 -137.72192383 157.08178711 C-137.68986471 163.72235578 -137.68989941 170.36233695 -137.7071386 177.00294739 C-137.72307302 183.42732612 -137.71622696 189.85149216 -137.69920158 196.27586174 C-137.69237985 198.99372046 -137.69331264 201.71140617 -137.70074654 204.42926216 C-137.70622808 208.23388564 -137.68572758 212.03752934 -137.65844727 215.84204102 C-137.66497314 216.95248276 -137.67149902 218.0629245 -137.67822266 219.20701599 C-137.56302215 228.70907455 -135.31750858 237.94248956 -129.1640625 245.4296875 C-120.19494548 253.98643132 -107.77374917 259.38816209 -96.9609375 265.2109375 C-91.20290389 268.31792857 -85.50194441 271.51946556 -79.8125 274.75 C-70.32384712 280.13582782 -60.81180453 285.47826894 -51.28393555 290.79443359 C-49.79373901 291.6270874 -49.79373901 291.6270874 -48.2734375 292.4765625 C-47.39864746 292.96463379 -46.52385742 293.45270508 -45.62255859 293.95556641 C-43.125 295.375 -43.125 295.375 -40.61572266 297.11865234 C-37.50836956 298.68603511 -36.43112813 298.2408705 -33.125 297.375 C-31.6596419 296.84884897 -30.20958179 296.278375 -28.77685547 295.66894531 C-27.9531546 295.31910583 -27.12945374 294.96926636 -26.28079224 294.60882568 C-24.96230789 294.03675385 -24.96230789 294.03675385 -23.6171875 293.453125 C-22.69187225 293.05353577 -21.76655701 292.65394653 -20.8132019 292.24224854 C-10.79367068 287.86613063 -1.00944738 283.04847495 8.75 278.125 C9.66221313 277.66689941 10.57442627 277.20879883 11.51428223 276.73681641 C25.54839186 269.6839087 39.34986782 262.36783292 52.875 254.375 C54.73907586 253.28949265 56.6036733 252.20488057 58.46875 251.12109375 C84.11069145 236.16145533 109.83342097 220.61459234 131.69140625 200.34765625 C133.875 198.375 133.875 198.375 136.47103882 196.7902832 C139.30386764 193.94411251 139.47894712 192.17596626 139.55264282 188.23564148 C139.54252167 187.41795792 139.53240051 186.60027435 139.52197266 185.7578125 C139.53073425 184.88892899 139.53949585 184.02004547 139.54852295 183.12483215 C139.57054322 180.24938101 139.55594486 177.37546716 139.5390625 174.5 C139.54243232 172.49421902 139.54728633 170.48844002 139.55355835 168.48266602 C139.56093527 164.27258927 139.55020671 160.06304248 139.52685547 155.85302734 C139.49851423 150.48428583 139.5146732 145.11680218 139.54471779 139.74810791 C139.56289438 135.60075632 139.55698299 131.45369644 139.54407883 127.30633545 C139.5407657 125.32899829 139.54475741 123.35163382 139.55647659 121.37432861 C139.6149972 108.71326524 138.77022095 99.00578559 131.75 88.0625 C124.48446082 81.27080033 115.10067667 76.71652867 106.4375 71.9375 C97.84269624 67.16210663 89.27905032 62.33718 80.75152588 57.44274902 C69.78761163 51.15025616 58.77869385 44.94878239 47.71240234 38.83740234 C42.22353938 35.80350804 36.75294986 32.74403515 31.31640625 29.6171875 C30.27266846 29.01865967 29.22893066 28.42013184 28.15356445 27.8034668 C26.19659261 26.67850378 24.24304061 25.54756105 22.29370117 24.40942383 C15.06616861 20.26125777 8.94450809 18.08851686 0.5 18 C-0.72460938 17.97164062 -1.94921875 17.94328125 -3.2109375 17.9140625 C-11.93230361 18.94112957 -19.65270406 24.15643138 -27.25 28.3125 Z " fill="#44AAE0" transform="translate(458.125,131.625)" data-index="2" style="opacity: 1;"></path>
<path d="M0 0 C0.33 0 0.66 0 1 0 C1.09350555 7.69422421 1.16416706 15.38838806 1.20724869 23.08305454 C1.22794681 26.65770891 1.25592917 30.23196896 1.30175781 33.80639648 C1.34586321 37.26888219 1.3692699 40.73099356 1.37950897 44.19373894 C1.39027958 46.12933091 1.4213964 48.06477646 1.45318604 50.00013733 C1.45641328 63.03343128 -1.12658292 75.34881194 -9 86 C-9.55171875 86.75667969 -10.1034375 87.51335937 -10.671875 88.29296875 C-20.26687479 100.20470995 -35.53582082 106.58675736 -48.7097168 113.78344727 C-56.54744611 118.06833291 -64.30618797 122.45976386 -72 127 C-83.79519598 133.94683338 -95.75709168 140.56754386 -107.76980591 147.12815857 C-111.64474244 149.24749219 -115.49876169 151.40109641 -119.34375 153.57421875 C-120.32520996 154.12384277 -121.30666992 154.6734668 -122.31787109 155.23974609 C-124.1124448 156.24519433 -125.90235032 157.25905033 -127.68603516 158.28369141 C-140.39814313 165.35386601 -153.86263422 166.71666164 -168.1171875 164.51953125 C-179.0390331 161.40126519 -189.18065919 154.57395895 -199 149 C-200.35012831 148.24325385 -201.7003713 147.48671221 -203.05078125 146.73046875 C-210.854341 142.29131799 -210.854341 142.29131799 -212 140 C-209.90136124 137.66678608 -208.24699167 136.50460517 -205.26953125 135.53515625 C-204.54830078 135.29216797 -203.82707031 135.04917969 -203.08398438 134.79882812 C-202.33439453 134.55583984 -201.58480469 134.31285156 -200.8125 134.0625 C-195.64281667 132.36969107 -190.79728511 130.5037551 -185.96459961 127.99829102 C-184.05998816 127.03048236 -182.14019452 126.1566685 -180.1796875 125.30859375 C-153.72557425 113.84357842 -127.84098243 100.62412675 -103 86 C-101.13047832 84.91229624 -99.26068104 83.82506605 -97.390625 82.73828125 C-71.79749589 67.80196328 -46.11215607 52.28696143 -24.28125 32.0703125 C-22.58258141 30.52871258 -20.8213402 29.05552129 -19.03125 27.62109375 C-10.32023137 20.4005536 -4.52007877 10.19773868 0 0 Z " fill="#4AB356" transform="translate(614,299)" data-index="3" style="opacity: 1;"></path>
<path d="M0 0 C0.33 0 0.66 0 1 0 C1 9.24 1 18.48 1 28 C0.67 28 0.34 28 0 28 C-0.33 22.06 -0.66 16.12 -1 10 C-5.00434781 15.62312672 -8.86274372 21.29948599 -12.5625 27.125 C-15.83635432 32.26102157 -19.22102811 37.22243969 -23 42 C-23.58007812 42.7528125 -24.16015625 43.505625 -24.7578125 44.28125 C-31.98306748 53.52489605 -39.93993325 62.06941145 -48.31640625 70.27734375 C-50.18718306 72.1301728 -50.18718306 72.1301728 -52.3125 74.9375 C-55.44576727 78.83809803 -59.45488686 81.77904738 -63.34765625 84.8828125 C-65.40523801 86.52524153 -67.39779308 88.20166639 -69.375 89.9375 C-72 92 -72 92 -74.34375 92.859375 C-77.52197324 94.22414145 -79.54226967 96.01213815 -82.125 98.3125 C-87.42249069 102.88051422 -92.99653361 106.96263192 -98.75 110.9375 C-99.54164551 111.49284424 -100.33329102 112.04818848 -101.14892578 112.62036133 C-104.74909995 115.07831006 -108.13206334 117.19361322 -112.25 118.66015625 C-115.77674108 119.92023145 -118.25438077 121.29677038 -121.25 123.5 C-122.05953125 124.0878125 -122.8690625 124.675625 -123.703125 125.28125 C-125.20106933 126.40216072 -126.6886962 127.53703386 -128.1640625 128.6875 C-130 130 -130 130 -132.125 130.5 C-134.40123363 130.88573402 -134.40123363 130.88573402 -136 134 C-138.63965207 135.61785127 -139.84012675 136 -143 136 C-143.33 136.66 -143.66 137.32 -144 138 C-146.46119536 139.34166245 -148.91548513 140.59580821 -151.4375 141.8125 C-152.52587158 142.34653442 -152.52587158 142.34653442 -153.63623047 142.89135742 C-155.08923567 143.60428959 -156.54332425 144.3150184 -157.99853516 145.0234375 C-160.54987276 146.26829605 -163.08821772 147.53828164 -165.625 148.8125 C-166.78128906 149.38291016 -166.78128906 149.38291016 -167.9609375 149.96484375 C-169.755236 150.87574242 -171.50699794 151.86942189 -173.25 152.875 C-176.70744238 154.28940825 -178.39142945 153.84510177 -182 153 C-184.54541016 151.81665039 -184.54541016 151.81665039 -187.0390625 150.34765625 C-187.94914062 149.81849609 -188.85921875 149.28933594 -189.796875 148.74414062 C-190.73015625 148.18919922 -191.6634375 147.63425781 -192.625 147.0625 C-194.49174819 145.96930157 -196.35891957 144.87682538 -198.2265625 143.78515625 C-199.04721191 143.29926025 -199.86786133 142.81336426 -200.71337891 142.31274414 C-202.77750403 141.12773445 -204.85939858 140.03897483 -207 139 C-207 138.34 -207 137.68 -207 137 C-202.41711342 134.21041686 -197.87956604 132.06827131 -192.87890625 130.13671875 C-189.51207165 128.80734444 -186.19651999 127.37623326 -182.875 125.9375 C-179.15072771 124.32929151 -175.4416864 122.74990868 -171.625 121.375 C-164.39047389 118.63086941 -157.72538738 114.79859843 -151 111 C-151 110.34 -151 109.68 -151 109 C-150.33282959 108.67427002 -149.66565918 108.34854004 -148.97827148 108.01293945 C-133.00301921 100.18707247 -117.37427879 91.95669838 -102 83 C-101.06671875 82.45843262 -100.1334375 81.91686523 -99.171875 81.35888672 C-72.63940697 65.93505732 -45.8977567 50.01447187 -23.28125 29.0703125 C-21.58518643 27.53107672 -19.82502859 26.06188053 -18.03515625 24.6328125 C-14.88584206 22.02452154 -12.38351392 19.01280613 -9.9375 15.75 C-9.29288818 14.90272339 -9.29288818 14.90272339 -8.63525391 14.03833008 C-5.30958314 9.59086024 -2.4503384 4.99095243 0 0 Z " fill="#6FC45C" transform="translate(613,302)" data-index="4" style="opacity: 1;"></path>
<path d="M0 0 C0.80118256 -0.0127597 1.60236511 -0.02551941 2.42782593 -0.03866577 C3.71386215 -0.04200424 3.71386215 -0.04200424 5.02587891 -0.04541016 C5.91602692 -0.05206696 6.80617493 -0.05872375 7.72329712 -0.06558228 C9.60441017 -0.07569612 11.48555901 -0.08039969 13.36669922 -0.08007812 C16.235469 -0.08444681 19.10269416 -0.12076656 21.97119141 -0.15869141 C23.80191533 -0.16456084 25.63264654 -0.16852939 27.46337891 -0.17041016 C28.74334244 -0.19196671 28.74334244 -0.19196671 30.04916382 -0.21395874 C35.4589326 -0.1727349 38.66004225 0.58495232 42.87744141 4.29052734 C46.58764946 8.65170069 46.3298476 13.07549326 46.31103516 18.53662109 C46.31627701 19.42535416 46.32151886 20.31408722 46.32691956 21.22975159 C46.33332822 23.10489866 46.33201773 24.98008599 46.32348633 26.85522461 C46.31497941 29.71525081 46.34374794 32.57327654 46.37548828 35.43310547 C46.37710061 37.25927675 46.37652215 39.08545155 46.37353516 40.91162109 C46.39038612 42.18687904 46.39038612 42.18687904 46.40757751 43.48789978 C46.34476504 48.87301617 45.55575084 52.08206219 41.87744141 56.29052734 C39.0348855 58.02311694 36.88041882 58.54914534 33.57128906 58.59692383 C32.730065 58.61291122 31.88884094 58.62889862 31.02212524 58.64537048 C30.1210202 58.65073318 29.21991516 58.65609589 28.29150391 58.66162109 C27.35696381 58.67064957 26.42242371 58.67967804 25.45956421 58.6889801 C23.48430582 58.70347392 21.50899951 58.71236718 19.53369141 58.71606445 C16.51984342 58.72795867 13.50804483 58.77715043 10.49462891 58.82763672 C8.57276387 58.83710172 6.65088629 58.84433638 4.72900391 58.84912109 C3.83194733 58.86865341 2.93489075 58.88818573 2.01065063 58.90830994 C-2.33560598 58.87714241 -5.22455032 58.67097625 -8.67578125 55.88061523 C-11.69148592 52.6882773 -12.24481086 51.34244937 -12.29956055 47.10375977 C-12.31239578 46.2391362 -12.32523102 45.37451263 -12.3384552 44.48368835 C-12.34584213 43.54724991 -12.35322906 42.61081146 -12.36083984 41.64599609 C-12.36891159 40.68405838 -12.37698334 39.72212067 -12.38529968 38.73103333 C-12.39914469 36.69253342 -12.40986498 34.65401029 -12.41772461 32.61547852 C-12.43493248 29.50085398 -12.47881436 26.38729217 -12.52294922 23.27294922 C-12.53307651 21.29313932 -12.5415925 19.31332039 -12.54833984 17.33349609 C-12.56584793 16.40313034 -12.58335602 15.47276459 -12.60139465 14.51420593 C-12.5874497 10.34783382 -12.50252798 7.93272104 -10.34594727 4.2878418 C-7.05815155 1.33434923 -4.42709538 0.04811991 0 0 Z " fill="#87D757" transform="translate(524.12255859375,248.70947265625)" data-index="5"></path>
<path d="M0 0 C5.39401579 5.39401579 8.37477857 11.22782187 8.5625 18.875 C8.45821628 26.08795717 7.09432878 31.12501639 2.19140625 36.51171875 C-4.91952532 43.19095801 -10.88159894 44.75270593 -20.5625 44.5546875 C-27.16454921 43.92360927 -31.06810253 41.24668173 -35.5625 36.5 C-40.67160124 30.16611421 -42.41989848 24.20094807 -42.16015625 16.05859375 C-41.10403552 8.82668132 -37.41714593 2.84011856 -31.625 -1.56640625 C-20.7841134 -8.40971591 -10.41591806 -6.62831149 0 0 Z " fill="#44B1E3" transform="translate(388.75,258.75)" data-index="6" style="opacity: 1;"></path>
<path d="M0 0 C5.4757167 -1.29151387 10.60243034 -1.91832976 16 0 C23.08303227 4.8187302 30.3440313 11.77729889 35 19 C35.33227539 21.65429688 35.33227539 21.65429688 35 24 C33.27734375 26.17578125 33.27734375 26.17578125 30.9375 28.3125 C27.22873363 31.8110056 23.81253674 35.39397861 20.5078125 39.2734375 C20.01023437 39.84320313 19.51265625 40.41296875 19 41 C18.59910156 41.56589844 18.19820313 42.13179688 17.78515625 42.71484375 C14.89951221 44.79225489 11.72224242 44.31166429 8.3125 44.1875 C7.2596582 44.16719727 7.2596582 44.16719727 6.18554688 44.14648438 C4.45670171 44.11120182 2.72825235 44.05739583 1 44 C0.29296875 42.22265625 0.29296875 42.22265625 0 40 C1.36328125 38.18359375 1.36328125 38.18359375 3.3125 36.4375 C5.64358565 34.31446256 7.22576361 32.66135458 9 30 C-21.195 29.505 -21.195 29.505 -52 29 C-52 24.38 -52 19.76 -52 15 C-31.21 14.67 -10.42 14.34 11 14 C7.37 10.37 3.74 6.74 0 3 C0 2.01 0 1.02 0 0 Z " fill="#F6F8F6" transform="translate(462,257)" data-index="7"></path>
<path d="M0 0 C0.33 0 0.66 0 1 0 C1.1325192 12.32077046 1.2630187 24.64156065 1.39115143 36.96237755 C1.46237221 43.80395757 1.53506468 50.64551974 1.60890198 57.48707199 C1.65613879 61.90623728 1.70157027 66.32542036 1.74685669 70.74460602 C1.78118413 74.01715779 1.81816895 77.28967295 1.85522461 80.56219482 C1.95844737 90.18609802 2.022007 99.80293743 1.890625 109.42675781 C1.87325486 111.0009452 1.85595891 112.57513341 1.83874512 114.14932251 C1.80701343 116.95801252 1.74927659 119.76429615 1.6739502 122.57211304 C1.50753345 135.78398154 6.0344563 148.10698626 15 158 C15.66 158.33 16.32 158.66 17 159 C17 159.66 17 160.32 17 161 C17.66 161 18.32 161 19 161 C19 161.66 19 162.32 19 163 C20.65 163.66 22.3 164.32 24 165 C24 165.66 24 166.32 24 167 C26.31 167.66 28.62 168.32 31 169 C31 169.66 31 170.32 31 171 C32.4540625 171.185625 32.4540625 171.185625 33.9375 171.375 C34.948125 171.58125 35.95875 171.7875 37 172 C37.33 172.66 37.66 173.32 38 174 C40.30965848 175.05352843 42.6429774 176.05719096 45 177 C45 177.66 45 178.32 45 179 C47.31 179.66 49.62 180.32 52 181 C52 181.66 52 182.32 52 183 C53.32 183 54.64 183 56 183 C56 183.66 56 184.32 56 185 C57.32 185 58.64 185 60 185 C60 185.66 60 186.32 60 187 C60.83337891 187.1546875 60.83337891 187.1546875 61.68359375 187.3125 C64.47821321 188.14193175 66.5953498 189.45198419 69.0625 191 C71.76080698 192.68796347 73.97148084 193.99049361 77 195 C77 195.66 77 196.32 77 197 C77.8971875 197.2165625 77.8971875 197.2165625 78.8125 197.4375 C80.56150404 197.8872439 82.28677023 198.42892341 84 199 C84 199.66 84 200.32 84 201 C84.99 201 85.98 201 87 201 C87 201.66 87 202.32 87 203 C87.7734375 203.1546875 87.7734375 203.1546875 88.5625 203.3125 C91.86026435 204.24263866 94.86633332 205.61395512 98 207 C98 206.34 98 205.68 98 205 C103.445 203.02 103.445 203.02 109 201 C107.35143175 196.87596527 107.35143175 196.87596527 104 195 C107 194 107 194 109.69921875 195.21484375 C110.68535156 195.78332031 111.67148437 196.35179687 112.6875 196.9375 C113.68136719 197.50339844 114.67523438 198.06929687 115.69921875 198.65234375 C116.83810547 199.31943359 116.83810547 199.31943359 118 200 C115.27136433 202.72863567 112.08993105 203.47085394 108.5 204.625 C107.81035156 204.85445312 107.12070312 205.08390625 106.41015625 205.3203125 C101.28111049 207 101.28111049 207 99 207 C98.67 207.99 98.34 208.98 98 210 C87.04087342 204.8386049 76.59935233 198.75018745 66.08300781 192.75537109 C62.05747937 190.46335736 58.02530364 188.18322614 53.99194336 185.9050293 C52.04932225 184.8075188 50.10741908 183.70873649 48.16625977 182.60864258 C43.89643797 180.190294 39.62197227 177.78390321 35.31640625 175.4296875 C17.98155071 165.93083999 6.32161331 155.549232 0.45318604 136.10142517 C-1.25099124 129.76231769 -1.40961151 123.78163195 -1.35644531 117.24829102 C-1.35848969 116.02416 -1.36053406 114.80002899 -1.36264038 113.5388031 C-1.36511425 110.21676025 -1.35434827 106.89529045 -1.33711338 103.5733273 C-1.32195723 100.08388172 -1.32324874 96.59443819 -1.32244873 93.10496521 C-1.31877136 87.25555092 -1.30387503 81.40625506 -1.28125 75.55688477 C-1.25228213 68.05246544 -1.24201505 60.54814078 -1.2375679 53.04367161 C-1.2335881 46.57631678 -1.22109527 40.10898244 -1.20722103 33.64164233 C-1.20312859 31.5682249 -1.20019989 29.49480819 -1.19742584 27.42138863 C-1.19161838 23.56287845 -1.17694068 19.70443002 -1.16113281 15.84594727 C-1.16001495 14.69941681 -1.15889709 13.55288635 -1.15774536 12.37161255 C-1.15203522 11.32182724 -1.14632507 10.27204193 -1.14044189 9.19044495 C-1.1359799 7.82365522 -1.1359799 7.82365522 -1.13142776 6.42925358 C-1.0080316 4.1484526 -0.64084238 2.18596248 0 0 Z " fill="#3E76AA" transform="translate(304,230)" data-index="8" style=""></path>
<path d="M0 0 C0.33 0 0.66 0 1 0 C1 9.24 1 18.48 1 28 C0.67 28 0.34 28 0 28 C-0.495 19.09 -0.495 19.09 -1 10 C-5.00434781 15.62312672 -8.86274372 21.29948599 -12.5625 27.125 C-15.83712352 32.26222829 -19.23145058 37.21345282 -23 42 C-23.56847656 42.76441406 -24.13695312 43.52882813 -24.72265625 44.31640625 C-31.38272122 53.05517733 -39.38090816 60.2244799 -48 67 C-46.42923465 63.15340985 -43.9676316 60.79729615 -41 57.9375 C-38.31789712 55.34506045 -36.07210825 53.10816238 -34 50 C-33.34 50 -32.68 50 -32 50 C-31.67322266 49.22269531 -31.67322266 49.22269531 -31.33984375 48.4296875 C-29.09329399 44.35576927 -26.01540933 40.90056594 -23.07617188 37.30859375 C-20.18312438 33.70887743 -17.91393169 30.24308924 -16 26 C-16.73863281 26.76183594 -17.47726562 27.52367187 -18.23828125 28.30859375 C-34.35576889 44.77995837 -53.49803411 59.96417999 -73.8984375 70.83203125 C-76.80297446 72.44626276 -79.53596694 74.29838057 -82.2734375 76.1796875 C-84 77 -84 77 -87 76 C-85.515 75.505 -85.515 75.505 -84 75 C-83.33169466 73.66748726 -82.66517357 72.33407884 -82 71 C-80.31103516 69.66308594 -80.31103516 69.66308594 -78.2890625 68.484375 C-77.5451123 68.04230713 -76.80116211 67.60023926 -76.03466797 67.14477539 C-75.23947754 66.68449951 -74.44428711 66.22422363 -73.625 65.75 C-71.97296937 64.76598136 -70.32192761 63.78030065 -68.671875 62.79296875 C-67.4643457 62.07439697 -67.4643457 62.07439697 -66.23242188 61.34130859 C-51.63860466 52.57288867 -37.97410452 41.99671378 -25 31 C-24.16082031 30.30777344 -23.32164062 29.61554688 -22.45703125 28.90234375 C-13.05378015 20.86948893 -5.45944428 11.12002599 0 0 Z " fill="#DAE795" transform="translate(613,302)" data-index="9" style="opacity: 1;"></path>
<path d="M0 0 C-3.02881709 2.52401424 -6.2334358 4.20215577 -9.7578125 5.90625 C-11.24419541 6.63131483 -12.71871674 7.38125476 -14.1796875 8.15625 C-20.0384903 11.23360097 -26.03367145 13.57126368 -32.23828125 15.83276367 C-37.03818815 17.59558662 -41.46746711 19.65279547 -46 22 C-49.61773941 23.4760904 -53.29334057 24.76444686 -57 26 C-57 26.66 -57 27.32 -57 28 C-56.15308594 28.25007813 -55.30617188 28.50015625 -54.43359375 28.7578125 C-50.7227607 30.10029818 -47.44324808 31.87407319 -44.0625 33.875 C-43.48048828 34.21402344 -42.89847656 34.55304688 -42.29882812 34.90234375 C-39.89036099 36.30528252 -37.48557273 37.71441991 -35.08300781 39.12744141 C-32.04816261 40.89289664 -29.41540252 42.21183019 -26 43 C-25.67 43.66 -25.34 44.32 -25 45 C-13.64676301 50.85973522 0.12896881 50.05206467 11.97265625 46.45703125 C19.42257146 43.93470543 26.20338067 39.89786776 33 36 C34.20801875 35.31715151 35.4163369 34.63483233 36.625 33.953125 C39.48700392 32.32698641 42.34009781 30.68650406 45.19042969 29.04003906 C48.51130875 27.13138488 51.84914614 25.25287317 55.1875 23.375 C56.19659424 22.80724854 56.19659424 22.80724854 57.22607422 22.22802734 C62.01687669 19.53855701 66.83074876 16.89430539 71.66796875 14.2890625 C73.36400501 13.35155502 75.03015441 12.35934923 76.67578125 11.3359375 C79 10 79 10 81 10 C81 10.66 81 11.32 81 12 C70.27734375 17.95703125 59.5546875 23.9140625 48.83203125 29.87109375 C48.08767822 30.28488281 47.3433252 30.69867188 46.57641602 31.125 C45.15461708 31.91436537 43.73193165 32.70213618 42.30834961 33.48828125 C38.63601514 35.51886118 34.98677167 37.58145544 31.359375 39.69140625 C15.50420354 48.85793536 1.32018228 53.38656106 -17.109375 50.515625 C-28.03408281 47.4213436 -38.18485775 40.57157563 -48 35 C-49.35012831 34.24325385 -50.7003713 33.48671221 -52.05078125 32.73046875 C-59.854341 28.29131799 -59.854341 28.29131799 -61 26 C-58.90136124 23.66678608 -57.24699167 22.50460517 -54.26953125 21.53515625 C-53.54830078 21.29216797 -52.82707031 21.04917969 -52.08398438 20.79882812 C-50.95959961 20.4343457 -50.95959961 20.4343457 -49.8125 20.0625 C-44.68788662 18.38444919 -39.87764908 16.54376028 -35.08764648 14.05981445 C-31.17272884 12.07236767 -27.13748828 10.34218037 -23.125 8.5625 C-16.89652486 5.79365502 -10.74645113 2.98266555 -4.77734375 -0.3203125 C-3 -1 -3 -1 0 0 Z " fill="#2C8A58" transform="translate(463,413)" data-index="10" style="opacity: 1;"></path>
<path d="M0 0 C-1.22861795 3.68585385 -2.25794048 4.07656196 -5.50390625 6.08203125 C-6.45958496 6.67701416 -7.41526367 7.27199707 -8.39990234 7.88500977 C-9.96538818 8.83911743 -9.96538818 8.83911743 -11.5625 9.8125 C-12.64225098 10.47757568 -13.72200195 11.14265137 -14.83447266 11.82788086 C-49.372722 33.00141654 -85.27807422 53.31496361 -122.625 69.1875 C-123.75119751 69.66872314 -123.75119751 69.66872314 -124.90014648 70.15966797 C-126.57373371 70.8417628 -128.28397897 71.43306141 -130 72 C-130.66 71.67 -131.32 71.34 -132 71 C-128.09828894 68.17125948 -124.49953487 66.30565906 -119.953125 64.7265625 C-117.73620719 63.94725155 -117.73620719 63.94725155 -114.75 62.3125 C-112 61 -112 61 -108 61 C-108 60.34 -108 59.68 -108 59 C-105.09399739 57.74335022 -103.20395416 57 -100 57 C-100 56.34 -100 55.68 -100 55 C-98.84113281 54.59394531 -97.68226563 54.18789063 -96.48828125 53.76953125 C-92.12948727 52.13318611 -88.20241891 50.02747126 -84.1875 47.6875 C-82.78806258 46.88619081 -81.38832167 46.08541142 -79.98828125 45.28515625 C-79.31104004 44.89602051 -78.63379883 44.50688477 -77.93603516 44.10595703 C-71.71581894 40.55266833 -65.40603669 37.20301834 -59 34 C-54.0589136 31.37087464 -49.15504924 28.68061515 -44.31640625 25.8671875 C-43.69314453 25.50584717 -43.06988281 25.14450684 -42.42773438 24.7722168 C-41.2064021 24.06195773 -39.9875398 23.34743017 -38.77148438 22.62817383 C-35.89391219 20.95494636 -33.30287861 19.55994748 -30 19 C-30 18.34 -30 17.68 -30 17 C-23.375 13 -23.375 13 -20 13 C-20 12.34 -20 11.68 -20 11 C-19.13375 10.5875 -18.2675 10.175 -17.375 9.75 C-12.90601174 7.43274683 -8.88415339 4.6121062 -4.75 1.75 C-2 0 -2 0 0 0 Z " fill="#0B170A" transform="translate(553,358)" data-index="11"></path>
<path d="M0 0 C0.75104004 -0.01901367 1.50208008 -0.03802734 2.27587891 -0.05761719 C15.15436463 0.09113965 26.11326379 6.01246049 37 12.25 C38.21876251 12.93603145 39.43816309 13.62093059 40.65820312 14.3046875 C44.30288729 16.35255387 47.93361172 18.42430782 51.5625 20.5 C52.90505293 21.26637721 54.24766439 22.0326519 55.59033203 22.79882812 C58.91561542 24.69707839 62.23945018 26.59784264 65.5625 28.5 C65.5625 29.16 65.5625 29.82 65.5625 30.5 C62.4036726 29.31543972 59.34975295 27.96399962 56.3125 26.5 C55.62671875 26.17 54.9409375 25.84 54.234375 25.5 C52.5625 24.5 52.5625 24.5 51.5625 22.5 C49.91081569 21.79703402 48.24109056 21.13604713 46.5625 20.5 C44.92381218 19.65091093 43.29942396 18.77386103 41.6875 17.875 C40.74132812 17.35421875 39.79515625 16.8334375 38.8203125 16.296875 C37.74523437 15.70390625 36.67015625 15.1109375 35.5625 14.5 C32.90097685 13.03203954 30.23370197 11.57526564 27.5625 10.125 C26.91555176 9.76712402 26.26860352 9.40924805 25.60205078 9.04052734 C22.71463299 7.47920546 20.89746783 6.5 17.5625 6.5 C17.5625 5.84 17.5625 5.18 17.5625 4.5 C-0.05091328 2.75115045 -13.45073777 3.0982455 -28.9375 12.1875 C-34.00530097 15.13717769 -39.12295408 17.95790827 -44.3125 20.6875 C-48.89230273 23.1024849 -53.37247361 25.59785418 -57.7265625 28.40234375 C-65.67237544 33.5 -65.67237544 33.5 -68.4375 33.5 C-66.98046514 29.73418731 -65.27102723 28.52616623 -61.73046875 26.6875 C-60.76141602 26.17501709 -59.79236328 25.66253418 -58.79394531 25.13452148 C-57.74819336 24.59512939 -56.70244141 24.0557373 -55.625 23.5 C-53.43488586 22.34754207 -51.24610806 21.1925414 -49.05859375 20.03515625 C-47.95112793 19.45008301 -46.84366211 18.86500977 -45.70263672 18.26220703 C-41.69653949 16.10010072 -37.77361182 13.81422256 -33.85229492 11.50292969 C-22.57723484 4.87941295 -13.2535417 0.26627167 0 0 Z " fill="#5CBCDA" transform="translate(458.4375,131.5)" data-index="12"></path>
<path d="M0 0 C0.33 0 0.66 0 1 0 C1.04254356 1.99954746 1.04080783 4.00041636 1 6 C0.67 6.33 0.34 6.66 0 7 C-0.10831816 8.66985299 -0.14685731 10.34426952 -0.15821838 12.01759338 C-0.1680072 13.10439392 -0.17779602 14.19119446 -0.18788147 15.31092834 C-0.19363693 16.51357834 -0.1993924 17.71622833 -0.20532227 18.95532227 C-0.21522186 20.21367889 -0.22512146 21.47203552 -0.23532104 22.76852417 C-0.26243276 26.22907786 -0.28340826 29.68964527 -0.30332303 33.15024686 C-0.32514407 36.76310831 -0.35255169 40.37592715 -0.37937927 43.98875427 C-0.42935882 50.83460417 -0.47427805 57.68047766 -0.51740164 64.5263738 C-0.56672914 72.31829615 -0.62166386 80.11017577 -0.67708123 87.90205681 C-0.79098202 103.93466518 -0.89780333 119.96731267 -1 136 C-3.18989694 132.71515459 -3.25208867 131.7575254 -3.26069641 127.94758606 C-3.26778122 126.90325409 -3.27486603 125.85892212 -3.28216553 124.78294373 C-3.27968811 123.6374556 -3.27721069 122.49196747 -3.2746582 121.31176758 C-3.27976913 120.10498352 -3.28488007 118.89819946 -3.29014587 117.65484619 C-3.30167877 114.34252643 -3.30411272 111.03045663 -3.30158257 107.71813416 C-3.30051288 104.95007271 -3.30539663 102.18203432 -3.310188 99.4139778 C-3.32128952 92.87842536 -3.32171819 86.34293037 -3.31567383 79.80737305 C-3.30964431 73.07671469 -3.32191738 66.34626592 -3.3432439 59.61564332 C-3.36089762 53.83035415 -3.36685499 48.04513144 -3.36360615 42.25981635 C-3.36179778 38.807698 -3.3643838 35.35572887 -3.37832069 31.90363503 C-3.39330533 28.04740923 -3.38389596 24.19144681 -3.37231445 20.33520508 C-3.37995819 19.1998381 -3.38760193 18.06447113 -3.39547729 16.8946991 C-3.35340242 10.54577322 -2.64808261 5.79035322 0 0 Z " fill="#0A2D44" transform="translate(324,227)" data-index="13"></path>
<path d="M0 0 C0 0.66 0 1.32 0 2 C-0.76183594 2.09796875 -1.52367187 2.1959375 -2.30859375 2.296875 C-3.34113281 2.44640625 -4.37367188 2.5959375 -5.4375 2.75 C-6.44683594 2.88921875 -7.45617187 3.0284375 -8.49609375 3.171875 C-16.96434629 5.17329032 -24.54585818 9.79136251 -32.125 13.9375 C-33.17051025 14.50670166 -34.21602051 15.07590332 -35.29321289 15.66235352 C-44.29434767 20.57913294 -53.22758301 25.61227328 -62.14453125 30.6796875 C-68.28833778 34.16999177 -74.45602331 37.61694007 -80.625 41.0625 C-91.01212408 46.86929136 -101.35670169 52.74730541 -111.67871094 58.66894531 C-115.22094314 60.70010328 -118.76672956 62.72502728 -122.3125 64.75 C-123.42238281 65.38421875 -124.53226562 66.0184375 -125.67578125 66.671875 C-126.44277344 67.11015625 -127.20976562 67.5484375 -128 68 C-128 67.01 -128 66.02 -128 65 C-125.76171875 63.38671875 -125.76171875 63.38671875 -122.6875 61.6875 C-121.59953125 61.0790625 -120.5115625 60.470625 -119.390625 59.84375 C-118.27171875 59.2353125 -117.1528125 58.626875 -116 58 C-114.96359375 57.4328125 -113.9271875 56.865625 -112.859375 56.28125 C-111.00221966 55.26825618 -109.14187819 54.2610654 -107.27734375 53.26171875 C-104.83539791 51.94947149 -104.83539791 51.94947149 -102 50 C-101.01 50 -100.02 50 -99 50 C-99 49.34 -99 48.68 -99 48 C-98.16855469 47.59007812 -97.33710938 47.18015625 -96.48046875 46.7578125 C-95.39378906 46.21898437 -94.30710937 45.68015625 -93.1875 45.125 C-92.10855469 44.59132812 -91.02960938 44.05765625 -89.91796875 43.5078125 C-86.92161735 42.02778861 -86.92161735 42.02778861 -84 40 C-83.01 40 -82.02 40 -81 40 C-81 39.34 -81 38.68 -81 38 C-78.69 37.34 -76.38 36.68 -74 36 C-74 35.34 -74 34.68 -74 34 C-73.46375 33.74347656 -72.9275 33.48695313 -72.375 33.22265625 C-65.88407039 30.05192254 -59.60794629 26.5670916 -53.359375 22.94750977 C-48.21354277 20 -48.21354277 20 -46 20 C-46 19.34 -46 18.68 -46 18 C-45.01 17.59652344 -44.02 17.19304687 -43 16.77734375 C-38.83007914 14.98918604 -34.93170188 12.81833279 -31 10.5625 C-30.32710938 10.18029297 -29.65421875 9.79808594 -28.9609375 9.40429688 C-28.29320312 9.02466797 -27.62546875 8.64503906 -26.9375 8.25390625 C-26.27782227 7.87991699 -25.61814453 7.50592773 -24.93847656 7.12060547 C-23.67358873 6.38939197 -22.41949154 5.63908871 -21.17871094 4.86767578 C-17.20181374 2.43489348 -13.8607586 1.33446236 -9.25 0.75 C-8.14140625 0.60046875 -7.0328125 0.4509375 -5.890625 0.296875 C-3 0 -3 0 0 0 Z " fill="#52B1CE" transform="translate(463,147)" data-index="14"></path>
<path d="M0 0 C0.86179367 -0.0066568 1.72358734 -0.0133136 2.61149597 -0.02017212 C4.43116124 -0.03027423 6.25086336 -0.0349899 8.07055664 -0.03466797 C10.83607991 -0.0390319 13.5999941 -0.07535064 16.36523438 -0.11328125 C18.1393175 -0.11915202 19.91340815 -0.12311967 21.6875 -0.125 C22.91446342 -0.14655655 22.91446342 -0.14655655 24.16621399 -0.16854858 C29.81428012 -0.12422442 34.41531098 0.96273574 39.04296875 4.3359375 C41.63442048 7.16870226 42.42030117 9.00559977 42.44702148 12.82568359 C42.45970566 13.70694916 42.47238983 14.58821472 42.48545837 15.4961853 C42.48252274 16.4410379 42.4795871 17.3858905 42.4765625 18.359375 C42.48180435 19.33830719 42.4870462 20.31723938 42.4924469 21.32583618 C42.49886579 23.39527438 42.49753183 25.46474907 42.48901367 27.53417969 C42.48051774 30.69272276 42.50924481 33.84944871 42.54101562 37.0078125 C42.54262816 39.02083279 42.54204911 41.03385628 42.5390625 43.046875 C42.55591347 44.45808121 42.55591347 44.45808121 42.57310486 45.89779663 C42.51208907 51.67074835 41.86097785 54.92455004 38.04296875 59.3359375 C37.05296875 59.8309375 37.05296875 59.8309375 36.04296875 60.3359375 C38.04296875 56.3359375 38.04296875 56.3359375 39.09512329 54.45297241 C40.1111127 52.1837364 40.30664549 50.68366987 40.33349609 48.21337891 C40.3462558 47.41219635 40.3590155 46.61101379 40.37216187 45.78555298 C40.37438751 44.9281955 40.37661316 44.07083801 40.37890625 43.1875 C40.38556305 42.29735199 40.39221985 41.40720398 40.39907837 40.49008179 C40.40919221 38.60896874 40.41389578 36.7278199 40.41357422 34.84667969 C40.4179429 31.97790991 40.45426266 29.11068475 40.4921875 26.2421875 C40.49805694 24.41146357 40.50202548 22.58073237 40.50390625 20.75 C40.51827728 19.89669098 40.53264832 19.04338196 40.54745483 18.16421509 C40.50629794 12.76323136 39.73775942 9.55542256 36.04296875 5.3359375 C33.25729726 3.64723544 31.16051822 3.08062822 27.92041016 3.04541016 C27.1192276 3.03265045 26.31804504 3.01989075 25.49258423 3.00674438 C24.63522675 3.00451874 23.77786926 3.00229309 22.89453125 3 C22.00438324 2.9933432 21.11423523 2.9866864 20.19711304 2.97982788 C18.31599999 2.96971404 16.43485115 2.96501047 14.55371094 2.96533203 C11.68494116 2.96096335 8.817716 2.92464359 5.94921875 2.88671875 C4.11849482 2.88084931 2.28776362 2.87688077 0.45703125 2.875 C-0.39627777 2.86062897 -1.24958679 2.84625793 -2.12875366 2.83145142 C-7.52973739 2.87260831 -10.73754619 3.64114683 -14.95703125 7.3359375 C-17.8606838 10.97837679 -17.30925678 15.8015612 -17.37109375 20.2578125 C-17.3904599 21.11779846 -17.40982605 21.97778442 -17.42977905 22.86383057 C-17.48944939 25.60443271 -17.53590985 28.34507714 -17.58203125 31.0859375 C-17.62022259 32.94663267 -17.659275 34.80731038 -17.69921875 36.66796875 C-17.7951406 41.22381614 -17.87921793 45.77974629 -17.95703125 50.3359375 C-18.28703125 50.3359375 -18.61703125 50.3359375 -18.95703125 50.3359375 C-18.9817619 44.71256836 -18.99990584 39.08923093 -19.01196289 33.46582031 C-19.01698966 31.55305429 -19.02381202 29.6402921 -19.0324707 27.72753906 C-19.04460873 24.9772039 -19.05027615 22.22691957 -19.0546875 19.4765625 C-19.05984879 18.62225647 -19.06501007 17.76795044 -19.07032776 16.88775635 C-19.07040329 16.08722839 -19.07047882 15.28670044 -19.07055664 14.46191406 C-19.07277725 13.76020081 -19.07499786 13.05848755 -19.07728577 12.33551025 C-18.87253021 8.9308678 -18.3957843 6.86870907 -16.20703125 4.2109375 C-11.18624222 0.02694664 -6.25334651 0.01688947 0 0 Z " fill="#091A0B" transform="translate(528.95703125,246.6640625)" data-index="15"></path>
<path d="M0 0 C0.33 0 0.66 0 1 0 C1 9.24 1 18.48 1 28 C0.67 28 0.34 28 0 28 C-0.495 19.09 -0.495 19.09 -1 10 C-5.00434781 15.62312672 -8.86274372 21.29948599 -12.5625 27.125 C-15.83712352 32.26222829 -19.23145058 37.21345282 -23 42 C-23.56847656 42.76441406 -24.13695312 43.52882813 -24.72265625 44.31640625 C-31.38272122 53.05517733 -39.38090816 60.2244799 -48 67 C-46.42923465 63.15340985 -43.9676316 60.79729615 -41 57.9375 C-38.31789712 55.34506045 -36.07210825 53.10816238 -34 50 C-33.34 50 -32.68 50 -32 50 C-31.77699219 49.4740625 -31.55398438 48.948125 -31.32421875 48.40625 C-29.52502044 45.1369103 -27.16569002 42.37765582 -24.8125 39.5 C-19.860225 33.32560918 -15.82511667 26.93543881 -12 20 C-10.9874048 18.28677076 -9.96685548 16.5782119 -8.9375 14.875 C-7.38804643 12.30923818 -5.84722805 9.74014491 -4.328125 7.15625 C-3.51601563 5.77953125 -3.51601563 5.77953125 -2.6875 4.375 C-2.19636719 3.53710938 -1.70523438 2.69921875 -1.19921875 1.8359375 C-0.80347656 1.23007812 -0.40773438 0.62421875 0 0 Z " fill="#AFDF6E" transform="translate(613,302)" data-index="16"></path>
<path d="M0 0 C0.33 0 0.66 0 1 0 C1.09913284 5.72911572 1.1715934 11.45772839 1.21972656 17.1875 C1.23979906 19.13517966 1.26706332 21.08279937 1.30175781 23.03027344 C1.35046852 25.83543721 1.37301241 28.63980187 1.390625 31.4453125 C1.41127014 32.31116974 1.43191528 33.17702698 1.45318604 34.06912231 C1.45519352 39.52032072 0.7456196 42.74570587 -3 47 C-5.84324082 48.73158122 -7.99677222 49.25861438 -11.30615234 49.30639648 C-12.1473764 49.32238388 -12.98860046 49.33837128 -13.85531616 49.35484314 C-14.7564212 49.36020584 -15.65752625 49.36556854 -16.5859375 49.37109375 C-17.5204776 49.38012222 -18.4550177 49.3891507 -19.4178772 49.39845276 C-21.39313559 49.41294657 -23.36844189 49.42183984 -25.34375 49.42553711 C-28.35759799 49.43743132 -31.36939658 49.48662308 -34.3828125 49.53710938 C-36.30467754 49.54657437 -38.22655511 49.55380904 -40.1484375 49.55859375 C-41.04549408 49.57812607 -41.94255066 49.59765839 -42.86679077 49.61778259 C-47.17304798 49.5869019 -50.10668909 49.38183461 -53.55322266 46.65258789 C-56 44 -56 44 -57 41 C-56.01 40.505 -56.01 40.505 -55 40 C-54.5978125 40.9590625 -54.5978125 40.9590625 -54.1875 41.9375 C-53.11332248 44.33131686 -53.11332248 44.33131686 -50 45 C-50 45.66 -50 46.32 -50 47 C-43.7699526 46.93316138 -37.54054079 46.84342045 -31.31103516 46.73754883 C-29.19066926 46.7042404 -27.07021343 46.6762271 -24.94970703 46.65356445 C-21.90618465 46.62012697 -18.86349088 46.56781747 -15.8203125 46.51171875 C-14.86818878 46.50532883 -13.91606506 46.4989389 -12.93508911 46.49235535 C-11.61394608 46.46266411 -11.61394608 46.46266411 -10.26611328 46.43237305 C-9.10029221 46.41571846 -9.10029221 46.41571846 -7.91091919 46.39872742 C-5.59221345 46.14796011 -5.59221345 46.14796011 -4 43 C-4.99 42.505 -4.99 42.505 -6 42 C-5.01 41.67 -4.02 41.34 -3 41 C-2.93941406 40.08476562 -2.87882813 39.16953125 -2.81640625 38.2265625 C-2.73261719 37.03804688 -2.64882813 35.84953125 -2.5625 34.625 C-2.48128906 33.44164062 -2.40007813 32.25828125 -2.31640625 31.0390625 C-2 28 -2 28 -1 26 C-0.84621148 24.04225931 -0.75028537 22.07982648 -0.68359375 20.1171875 C-0.62075195 18.36728516 -0.62075195 18.36728516 -0.55664062 16.58203125 C-0.51732422 15.35871094 -0.47800781 14.13539063 -0.4375 12.875 C-0.37272461 11.02841797 -0.37272461 11.02841797 -0.30664062 9.14453125 C-0.20031296 6.09647147 -0.09828219 3.0483281 0 0 Z " fill="#56A35C" transform="translate(569,258)" data-index="17"></path>
<path d="M0 0 C-3.02881709 2.52401424 -6.2334358 4.20215577 -9.7578125 5.90625 C-11.24419541 6.63131483 -12.71871674 7.38125476 -14.1796875 8.15625 C-20.0384903 11.23360097 -26.03367145 13.57126368 -32.23828125 15.83276367 C-37.03818815 17.59558662 -41.46746711 19.65279547 -46 22 C-49.61773941 23.4760904 -53.29334057 24.76444686 -57 26 C-57 26.66 -57 27.32 -57 28 C-56.15179688 28.25136719 -55.30359375 28.50273437 -54.4296875 28.76171875 C-50.74717801 30.09128083 -47.48359449 31.83413716 -44.125 33.8125 C-43.5151123 34.16634766 -42.90522461 34.52019531 -42.27685547 34.88476562 C-37.79189563 37.49930553 -33.3722041 40.20178937 -29 43 C-32 44 -32 44 -34.35668945 42.98364258 C-35.72120239 42.19703247 -35.72120239 42.19703247 -37.11328125 41.39453125 C-38.11423828 40.82283203 -39.11519531 40.25113281 -40.14648438 39.66210938 C-41.19126953 39.05173828 -42.23605469 38.44136719 -43.3125 37.8125 C-44.86227539 36.92594727 -44.86227539 36.92594727 -46.44335938 36.02148438 C-51.40736094 33.16535262 -56.29351702 30.26456564 -61 27 C-60 24 -60 24 -58.26928711 23.08032227 C-57.5294458 22.82822998 -56.78960449 22.5761377 -56.02734375 22.31640625 C-55.20943359 22.02830078 -54.39152344 21.74019531 -53.54882812 21.44335938 C-52.68708984 21.15267578 -51.82535156 20.86199219 -50.9375 20.5625 C-45.45204453 18.67753654 -40.19863329 16.71917321 -35.0480957 14.04223633 C-31.148128 12.05761812 -27.12409664 10.3362407 -23.125 8.5625 C-16.89652486 5.79365502 -10.74645113 2.98266555 -4.77734375 -0.3203125 C-3 -1 -3 -1 0 0 Z " fill="#409B5F" transform="translate(463,413)" data-index="18"></path>
<path d="M0 0 C0.99 0.33 1.98 0.66 3 1 C3.71848899 4.2535253 4.13569166 7.30190309 4.18945312 10.6315918 C4.21452942 11.96404182 4.21452942 11.96404182 4.2401123 13.32341003 C4.25368774 14.27242691 4.26726318 15.22144379 4.28125 16.19921875 C4.29965942 17.18944534 4.31806885 18.17967194 4.33703613 19.1999054 C4.39563644 22.36237798 4.44846605 25.52490488 4.5 28.6875 C4.5681921 32.8373396 4.64197353 36.98703017 4.71875 41.13671875 C4.73911316 42.54506233 4.73911316 42.54506233 4.7598877 43.9818573 C4.85770605 49.27173858 5.22342815 54.45452864 5.79403687 59.71315002 C6.07757313 62.86131004 6.01163121 65.94565797 5.87890625 69.1015625 C5.83056641 70.33261719 5.78222656 71.56367188 5.73242188 72.83203125 C5.67634766 74.08371094 5.62027344 75.33539063 5.5625 76.625 C5.51029297 77.91535156 5.45808594 79.20570313 5.40429688 80.53515625 C5.2757492 83.69041739 5.14084196 86.8452678 5 90 C8.42578949 86.82460444 8.42578949 86.82460444 11 83 C11.66 83 12.32 83 13 83 C13 81.68 13 80.36 13 79 C13.66 79 14.32 79 15 79 C15.12375 78.4225 15.2475 77.845 15.375 77.25 C16.00648824 74.97664233 16.88858191 73.0746471 18 71 C18.66 71.33 19.32 71.66 20 72 C15.73684544 81.38990634 11.17968362 89.45054726 4 97 C3.67 97 3.34 97 3 97 C2.99191315 95.88801743 2.98382629 94.77603485 2.97549438 93.63035583 C2.89793652 83.13982416 2.81017285 72.64942065 2.71247292 62.15905666 C2.66257354 56.7661387 2.61624288 51.37323973 2.578125 45.98022461 C2.54119198 40.77355696 2.49481014 35.56705063 2.44193649 30.36052132 C2.42343515 28.37629088 2.40831154 26.39202591 2.39665604 24.40774345 C2.37972066 21.62379388 2.35066805 18.84021032 2.31884766 16.05639648 C2.31668747 15.23999695 2.31452728 14.42359741 2.31230164 13.5824585 C2.24119556 8.69769268 1.54957307 4.63885192 0 0 Z " fill="#4E90C9" transform="translate(594,228)" data-index="19"></path>
<path d="M0 0 C0.80118256 -0.0127597 1.60236511 -0.02551941 2.42782593 -0.03866577 C3.71386215 -0.04200424 3.71386215 -0.04200424 5.02587891 -0.04541016 C5.91602692 -0.05206696 6.80617493 -0.05872375 7.72329712 -0.06558228 C9.60441017 -0.07569612 11.48555901 -0.08039969 13.36669922 -0.08007812 C16.235469 -0.08444681 19.10269416 -0.12076656 21.97119141 -0.15869141 C23.80191533 -0.16456084 25.63264654 -0.16852939 27.46337891 -0.17041016 C28.74334244 -0.19196671 28.74334244 -0.19196671 30.04916382 -0.21395874 C35.46927153 -0.17265611 38.59968259 0.6501093 42.87744141 4.29052734 C45.30689301 7.93470474 45.03923715 10.00294006 44.87744141 14.29052734 C42.62224921 12.03533514 41.90020673 10.28576865 40.87744141 7.29052734 C40.87744141 6.30052734 40.87744141 5.31052734 40.87744141 4.29052734 C38.12226492 3.52207183 35.61170904 3.14287117 32.75488281 3.06591797 C31.55310898 3.0321405 31.55310898 3.0321405 30.32705688 2.99768066 C26.68087068 2.9262414 23.03486984 2.86921505 19.38818359 2.83056641 C17.46768306 2.80391987 15.54732674 2.762951 13.62744141 2.70751953 C10.84821203 2.62830386 8.07169715 2.59525452 5.29150391 2.57177734 C4.43819489 2.5387854 3.58488586 2.50579346 2.70571899 2.47180176 C-0.77575795 2.48343838 -3.16076146 2.57843636 -6.01156616 4.68910217 C-9.35290702 8.28659168 -10.87315605 11.22079251 -10.92724609 16.22412109 C-10.95302734 17.284375 -10.97880859 18.34462891 -11.00537109 19.43701172 C-11.00279297 20.52304687 -11.00021484 21.60908203 -10.99755859 22.72802734 C-11.01818359 23.84113281 -11.03880859 24.95423828 -11.06005859 26.10107422 C-11.10693535 28.83164527 -11.12702031 31.55963822 -11.12255859 34.29052734 C-11.45255859 34.29052734 -11.78255859 34.29052734 -12.12255859 34.29052734 C-12.23885642 29.89491696 -12.30984493 25.49970305 -12.37255859 21.10302734 C-12.40607422 19.85714844 -12.43958984 18.61126953 -12.47412109 17.32763672 C-12.48701172 16.12558594 -12.49990234 14.92353516 -12.51318359 13.68505859 C-12.53413086 12.58009033 -12.55507813 11.47512207 -12.57666016 10.33666992 C-12.01222817 6.55042375 -10.80853092 4.97620503 -8.12255859 2.29052734 C-5.3242358 0.62333954 -3.2434556 0.03525445 0 0 Z " fill="#B1D66E" transform="translate(524.12255859375,248.70947265625)" data-index="20"></path>
<path d="M0 0 C2.64 0 5.28 0 8 0 C8 0.66 8 1.32 8 2 C9.051875 2.1546875 9.051875 2.1546875 10.125 2.3125 C13.39137647 3.09359003 16.0471852 4.42058743 19 6 C19 6.66 19 7.32 19 8 C19.83917969 8.16628906 19.83917969 8.16628906 20.6953125 8.3359375 C23.35978835 9.10366783 25.46376439 10.25448006 27.875 11.625 C34.47626813 15.30527398 41.22422586 18.65662532 48 22 C48 22.66 48 23.32 48 24 C48.598125 24.144375 49.19625 24.28875 49.8125 24.4375 C51.56150404 24.8872439 53.28677023 25.42892341 55 26 C55 26.66 55 27.32 55 28 C56.31097656 28.38478516 56.31097656 28.38478516 57.6484375 28.77734375 C61.04817632 30.01757481 63.63310109 31.54402172 66.625 33.5625 C70.22042155 36.06105802 70.22042155 36.06105802 74.2734375 37.52734375 C75.12808594 37.76130859 75.12808594 37.76130859 76 38 C76.33 38.99 76.66 39.98 77 41 C71.36011428 39.4328589 66.6955024 36.68829887 61.6875 33.75 C59.81312195 32.66429013 57.93809338 31.57970275 56.0625 30.49609375 C55.07765625 29.92616699 54.0928125 29.35624023 53.078125 28.76904297 C46.74660744 25.13022823 40.36337128 21.58311422 33.98510742 18.02709961 C29.36633821 15.45054772 24.75273339 12.86902324 20.17578125 10.21875 C13.6135244 6.42920451 7.37757933 2.97613732 0 1 C0 0.67 0 0.34 0 0 Z " fill="#60BCD6" transform="translate(464,149)" data-index="21"></path>
<path d="M0 0 C0.33 0 0.66 0 1 0 C1.09350555 7.69422421 1.16416706 15.38838806 1.20724869 23.08305454 C1.22794681 26.65770891 1.25592917 30.23196896 1.30175781 33.80639648 C1.34586321 37.26888219 1.3692699 40.73099356 1.37950897 44.19373894 C1.39027958 46.12933091 1.4213964 48.06477646 1.45318604 50.00013733 C1.45528926 58.49404668 1.17829159 71.08725954 -4.63519287 77.92262268 C-5.08557922 78.2781572 -5.53596558 78.63369171 -6 79 C-5.5837424 75.08717859 -4.97066618 71.81292878 -3.5 68.1640625 C-1.30609531 61.69055906 -1.42498851 55.08133429 -1.3125 48.3125 C-1.27885439 46.91265811 -1.244335 45.51283698 -1.20898438 44.11303711 C-0.94476203 32.78794565 -0.93154004 21.45939215 -1.03637695 10.13208008 C-1.04499756 8.94509521 -1.05361816 7.75811035 -1.0625 6.53515625 C-1.07410156 5.487229 -1.08570313 4.43930176 -1.09765625 3.35961914 C-1 1 -1 1 0 0 Z " fill="#83B770" transform="translate(614,299)" data-index="22"></path>
<path d="M0 0 C2.93854267 -0.10962439 5.87286071 -0.18806629 8.8125 -0.25 C9.62654297 -0.28351563 10.44058594 -0.31703125 11.27929688 -0.3515625 C23.37399523 -0.54128326 33.07272531 5.40997575 43.3125 11.25 C44.50652394 11.92330551 45.70094406 12.59590889 46.89575195 13.26782227 C50.26969596 15.16828848 53.63542165 17.08299717 57 19 C58.62234302 19.92066598 60.24473088 20.84125297 61.8671875 21.76171875 C64.91798406 23.49657967 67.96219785 25.24245458 71 27 C71 27.66 71 28.32 71 29 C67.8411726 27.81543972 64.78725295 26.46399962 61.75 25 C61.06421875 24.67 60.3784375 24.34 59.671875 24 C58 23 58 23 57 21 C55.34831569 20.29703402 53.67859056 19.63604713 52 19 C50.36131218 18.15091093 48.73692396 17.27386103 47.125 16.375 C46.17882812 15.85421875 45.23265625 15.3334375 44.2578125 14.796875 C43.18273437 14.20390625 42.10765625 13.6109375 41 13 C38.33847685 11.53203954 35.67120197 10.07526564 33 8.625 C32.35305176 8.26712402 31.70610352 7.90924805 31.03955078 7.54052734 C28.15213299 5.97920546 26.33496783 5 23 5 C23 4.34 23 3.68 23 3 C15.41 2.34 7.82 1.68 0 1 C0 0.67 0 0.34 0 0 Z " fill="#5ECBE4" transform="translate(453,133)" data-index="23"></path>
<path d="M0 0 C2.46502104 2.53971865 3.21185318 4.72241271 4.0625 8.125 C3.4025 8.125 2.7425 8.125 2.0625 8.125 C1.629375 7.3825 1.19625 6.64 0.75 5.875 C-2.03001194 1.34461017 -5.80576863 -1.5065383 -10.9375 -2.875 C-18.75802511 -3.64622825 -25.15273184 -2.92841199 -31.36328125 2.08203125 C-36.0069281 6.42943269 -38.99052124 9.76671401 -39.9375 16.125 C-40.2675 16.125 -40.5975 16.125 -40.9375 16.125 C-41.77028776 10.71187956 -39.8896389 7.57907656 -36.85546875 3.3125 C-26.32645774 -8.69614799 -12.66264759 -8.08254101 0 0 Z " fill="#56B5D1" transform="translate(388.9375,258.875)" data-index="24"></path>
<path d="M0 0 C0.66 0.33 1.32 0.66 2 1 C-0.31 2.65 -2.62 4.3 -5 6 C-5 5.01 -5 4.02 -5 3 C-2.625 1.25 -2.625 1.25 0 0 Z M-11 5 C-9.32457024 5.28604898 -7.65614657 5.61781233 -6 6 C-8.5 8 -8.5 8 -11 10 C-11.75796875 10.64324219 -12.5159375 11.28648437 -13.296875 11.94921875 C-16.11309037 14.08579833 -18.87242051 15.55013615 -22.0625 17.0625 C-26.32156265 19.08460278 -26.32156265 19.08460278 -30.18359375 21.74609375 C-30.78300781 22.15988281 -31.38242187 22.57367188 -32 23 C-32.99 22.67 -33.98 22.34 -35 22 C-34.01 21.67 -33.02 21.34 -32 21 C-31.69263916 20.37633545 -31.38527832 19.7526709 -31.06860352 19.11010742 C-29.73952251 16.48565068 -28.42109099 15.71936298 -25.90234375 14.23828125 C-24.70061523 13.51995117 -24.70061523 13.51995117 -23.47460938 12.78710938 C-22.63736328 12.30048828 -21.80011719 11.81386719 -20.9375 11.3125 C-19.27940253 10.33034724 -17.62182215 9.3473208 -15.96484375 8.36328125 C-15.2287085 7.93313721 -14.49257324 7.50299316 -13.73413086 7.05981445 C-12.03839692 6.1166012 -12.03839692 6.1166012 -11 5 Z " fill="#D7EA82" transform="translate(561,356)" data-index="25"></path>
<path d="M0 0 C0.33 0 0.66 0 1 0 C1.08636719 0.9178125 1.17273438 1.835625 1.26171875 2.78125 C2.10185679 10.11896944 2.9271318 16.35806004 8 22 C8.66 22.33 9.32 22.66 10 23 C10 23.66 10 24.32 10 25 C10.94875 25.309375 11.8975 25.61875 12.875 25.9375 C16 27 16 27 18 28 C26.03662078 28.74709622 32.45380942 28.7583721 39.23046875 24.09375 C41 23 41 23 44 23 C42.96909707 23.96990276 41.92459988 24.92536201 40.875 25.875 C40.00488281 26.67550781 40.00488281 26.67550781 39.1171875 27.4921875 C32.84564294 31.95863806 25.37057618 31.70454037 18 31 C11.29488518 29.2575524 6.86011737 24.56551314 3 19 C-0.49672199 12.93653528 -0.3396752 6.84382622 0 0 Z " fill="#4C8ABB" transform="translate(347,272)" data-index="26" style="opacity: 1;"></path>
<path d="M0 0 C0.61190186 0.32145996 1.22380371 0.64291992 1.85424805 0.97412109 C6.34232843 2.43775429 10.63784687 2.3574921 15.33203125 2.4140625 C16.81965218 2.44311172 16.81965218 2.44311172 18.33732605 2.4727478 C21.4956307 2.53238453 24.6539721 2.57886555 27.8125 2.625 C29.95769792 2.6631944 32.10288075 2.70224698 34.24804688 2.7421875 C39.49856362 2.83807292 44.74917176 2.92316678 50 3 C49.67 3.66 49.34 4.32 49 5 C37.83393447 5.66427019 26.68380074 6.25247853 15.5 5.75 C14.36437622 5.71048218 14.36437622 5.71048218 13.20581055 5.67016602 C8.20283505 5.38651241 4.50315514 4.20417594 0 2 C0 1.34 0 0.68 0 0 Z " fill="#01120F" transform="translate(514,304)" data-index="27"></path>
<path d="M0 0 C0 0.66 0 1.32 0 2 C-0.76183594 2.09796875 -1.52367187 2.1959375 -2.30859375 2.296875 C-3.34113281 2.44640625 -4.37367188 2.5959375 -5.4375 2.75 C-6.44683594 2.88921875 -7.45617187 3.0284375 -8.49609375 3.171875 C-17.27781421 5.24737638 -25.09489155 10.11888301 -32.9375 14.4375 C-40.22471156 18.43787072 -47.53241946 22.34530013 -55 26 C-54 23 -54 23 -51.0625 21.3125 C-48 20 -48 20 -46 20 C-46 19.34 -46 18.68 -46 18 C-45.01 17.59652344 -44.02 17.19304687 -43 16.77734375 C-38.83007914 14.98918604 -34.93170188 12.81833279 -31 10.5625 C-30.32710938 10.18029297 -29.65421875 9.79808594 -28.9609375 9.40429688 C-28.29320312 9.02466797 -27.62546875 8.64503906 -26.9375 8.25390625 C-26.27782227 7.87991699 -25.61814453 7.50592773 -24.93847656 7.12060547 C-23.67358873 6.38939197 -22.41949154 5.63908871 -21.17871094 4.86767578 C-17.20181374 2.43489348 -13.8607586 1.33446236 -9.25 0.75 C-8.14140625 0.60046875 -7.0328125 0.4509375 -5.890625 0.296875 C-3 0 -3 0 0 0 Z " fill="#59BDD4" transform="translate(463,147)" data-index="28"></path>
<path d="M0 0 C0.99 0.33 1.98 0.66 3 1 C-4.15061666 8.88401324 -12.37929171 15.1128399 -20.89892578 21.43115234 C-22.3545475 22.51804813 -23.80025174 23.61830491 -25.23779297 24.72900391 C-25.95209473 25.27862793 -26.66639648 25.82825195 -27.40234375 26.39453125 C-28.04550537 26.8944458 -28.68866699 27.39436035 -29.35131836 27.90942383 C-31 29 -31 29 -33 29 C-31.45701507 24.43489287 -27.85566544 22.4243763 -24.0625 19.8125 C-23.11213867 19.13670898 -23.11213867 19.13670898 -22.14257812 18.44726562 C-19.45695374 16.56365735 -17.12788702 15.04262901 -14 14 C-14 13.34 -14 12.68 -14 12 C-12.13671875 10.37890625 -12.13671875 10.37890625 -9.6875 8.5625 C-6.36091496 6.09023023 -6.36091496 6.09023023 -3.33203125 3.27734375 C-2 2 -2 2 0 2 C0 1.34 0 0.68 0 0 Z " fill="#14190C" transform="translate(591,327)" data-index="29"></path>
<path d="M0 0 C0.495 0.99 0.495 0.99 1 2 C-0.72721684 3.27348212 -2.45686238 4.54367057 -4.1875 5.8125 C-5.63189453 6.87404297 -5.63189453 6.87404297 -7.10546875 7.95703125 C-9.67980659 9.77400654 -12.27958577 11.41425427 -15 13 C-15.78375 13.495 -16.5675 13.99 -17.375 14.5 C-19.86188522 15.92107727 -22.37576097 17.07468115 -25.01953125 18.171875 C-27.34139546 19.14275313 -29.63894827 20.16271399 -31.9375 21.1875 C-32.70964844 21.53167969 -33.48179687 21.87585938 -34.27734375 22.23046875 C-34.84582031 22.48441406 -35.41429687 22.73835938 -36 23 C-34.76739254 19.30217763 -33.91117912 19.12313612 -30.546875 17.36328125 C-29.16072998 16.62609863 -29.16072998 16.62609863 -27.74658203 15.87402344 C-26.75770996 15.3587207 -25.76883789 14.84341797 -24.75 14.3125 C-16.2997173 9.81717396 -8.05665023 5.16841713 0 0 Z " fill="#9BC76C" transform="translate(528,375)" data-index="30" style="opacity: 1;"></path>
<path d="M0 0 C4.8274799 1.41292095 8.7162359 3.42974154 13 6 C10.27136433 8.72863567 7.08993105 9.47085394 3.5 10.625 C2.81035156 10.85445313 2.12070312 11.08390625 1.41015625 11.3203125 C-3.71888951 13 -3.71888951 13 -6 13 C-6.33 13.99 -6.66 14.98 -7 16 C-10.3 14.35 -13.6 12.7 -17 11 C-12.82412255 9.60804085 -10.86525224 11.17676781 -7 13 C-7 12.34 -7 11.68 -7 11 C-1.555 9.02 -1.555 9.02 4 7 C2.35143175 2.87596527 2.35143175 2.87596527 -1 1 C-0.67 0.67 -0.34 0.34 0 0 Z " fill="#3678A4" transform="translate(409,424)" data-index="31"></path>
<path d="M0 0 C-3.02646644 2.52205537 -6.22827059 4.19974295 -9.75 5.90234375 C-11.2625251 6.64022492 -12.76272342 7.40387265 -14.25 8.19140625 C-19.16462207 10.76996619 -24.17122795 12.94845396 -29.375 14.875 C-30.53773438 15.30554688 -31.70046875 15.73609375 -32.8984375 16.1796875 C-36.01968214 17.0052056 -37.04417092 16.90217114 -40 16 C-39.30551758 15.69819824 -38.61103516 15.39639648 -37.89550781 15.08544922 C-34.67887132 13.68531024 -31.46443782 12.28017893 -28.25 10.875 C-27.15816406 10.400625 -26.06632812 9.92625 -24.94140625 9.4375 C-18.30210796 6.53035164 -11.83829344 3.43948618 -5.45214844 0.00830078 C-3 -1 -3 -1 0 0 Z " fill="#50A05E" transform="translate(463,413)" data-index="32"></path>
<path d="M0 0 C0.99 0 1.98 0 3 0 C3.33 0.66 3.66 1.32 4 2 C16.1179631 8.25443257 29.42524431 6.55445312 41.91015625 2.875 C45 2 45 2 47 2 C47 2.66 47 3.32 47 4 C33.57632643 9.39838937 19.01886129 10.30204719 5.34765625 5.16796875 C2.99123285 3.9956383 1.04190222 2.65341966 -1 1 C-0.67 0.67 -0.34 0.34 0 0 Z " fill="#288553" transform="translate(434,456)" data-index="33" style="opacity: 1;"></path>
<path d="M0 0 C0.66 0.33 1.32 0.66 2 1 C-2.26315456 10.38990634 -6.82031638 18.45054726 -14 26 C-14.33 26 -14.66 26 -15 26 C-15 19.4 -15 12.8 -15 6 C-13.12815629 9.74368742 -12.76000233 10.8400791 -12.875 14.75 C-12.89304687 15.54921875 -12.91109375 16.3484375 -12.9296875 17.171875 C-12.95289063 17.77515625 -12.97609375 18.3784375 -13 19 C-9.57421051 15.82460444 -9.57421051 15.82460444 -7 12 C-6.34 12 -5.68 12 -5 12 C-5 10.68 -5 9.36 -5 8 C-4.34 8 -3.68 8 -3 8 C-2.87625 7.4225 -2.7525 6.845 -2.625 6.25 C-1.99351176 3.97664233 -1.11141809 2.0746471 0 0 Z " fill="#3D6F8F" transform="translate(612,299)" data-index="34"></path>
<path d="M0 0 C0 3 0 3 -1.29760742 4.62231445 C-1.89420166 5.1968335 -2.4907959 5.77135254 -3.10546875 6.36328125 C-4.08676758 7.32331055 -4.08676758 7.32331055 -5.08789062 8.30273438 C-5.78076172 8.96595703 -6.47363281 9.62917969 -7.1875 10.3125 C-12.64916924 15.53837634 -12.64916924 15.53837634 -17.6484375 21.1953125 C-20.04454665 24.05313039 -22.51957752 26.2488565 -25.4375 28.5625 C-26.86835937 29.7071875 -26.86835937 29.7071875 -28.328125 30.875 C-29.20984375 31.57625 -30.0915625 32.2775 -31 33 C-32.23284339 34.01638997 -33.46291199 35.03617862 -34.6875 36.0625 C-35.450625 36.701875 -36.21375 37.34125 -37 38 C-37 37.01 -37 36.02 -37 35 C-35.19064195 33.30666664 -33.37613811 31.78468758 -31.4375 30.25 C-24.05284729 24.1919197 -17.34392497 17.52323842 -10.625 10.75 C-10.09969696 10.22088013 -9.57439392 9.69176025 -9.03317261 9.14660645 C-6.01531627 6.10441018 -3.00470974 3.05518948 0 0 Z " fill="#76C254" transform="translate(578,356)" data-index="35" style="opacity: 1;"></path>
<path d="M0 0 C0.33 0 0.66 0 1 0 C1 9.24 1 18.48 1 28 C0.67 28 0.34 28 0 28 C-0.33 22.06 -0.66 16.12 -1 10 C-2.98 12.64 -4.96 15.28 -7 18 C-7.66 16.68 -8.32 15.36 -9 14 C-8.40251953 13.11248047 -8.40251953 13.11248047 -7.79296875 12.20703125 C-5.52085007 8.81820217 -3.26607542 5.44957571 -1.1875 1.9375 C-0.795625 1.298125 -0.40375 0.65875 0 0 Z " fill="#A6DC75" transform="translate(613,302)" data-index="36"></path>
<path d="M0 0 C0.433125 0.639375 0.86625 1.27875 1.3125 1.9375 C2.91239177 4.26746003 2.91239177 4.26746003 6 5 C6 5.66 6 6.32 6 7 C7.15113281 6.98839844 8.30226563 6.97679687 9.48828125 6.96484375 C21.02875726 6.88662809 32.48298341 7.27776828 44 8 C44 8.33 44 8.66 44 9 C38.69816541 9.1239816 33.39718206 9.21451776 28.09423828 9.2746582 C26.29200534 9.29973866 24.48987349 9.33381188 22.68798828 9.37719727 C20.09121723 9.4381375 17.49579535 9.46627346 14.8984375 9.48828125 C13.69808365 9.52699089 13.69808365 9.52699089 12.47348022 9.56648254 C8.37653709 9.56851748 5.77406857 9.24686703 2.50634766 6.65698242 C0 4 0 4 -1 1 C-0.67 0.67 -0.34 0.34 0 0 Z " fill="#54B06E" transform="translate(513,298)" data-index="37"></path>
<path d="M0 0 C0.66 0.33 1.32 0.66 2 1 C0.42173185 2.46381359 -1.16282229 3.92085163 -2.75 5.375 C-3.63171875 6.18710937 -4.5134375 6.99921875 -5.421875 7.8359375 C-7.64731223 9.70395603 -9.39867977 10.80921883 -12 12 C-13.69916955 13.04373624 -15.38564098 14.1082844 -17.0625 15.1875 C-18.01898438 15.80109375 -18.97546875 16.4146875 -19.9609375 17.046875 C-20.96382813 17.69140625 -21.96671875 18.3359375 -23 19 C-25.06187087 20.31348811 -27.1243417 21.62603504 -29.1875 22.9375 C-30.10917969 23.52402344 -31.03085937 24.11054688 -31.98046875 24.71484375 C-32.64691406 25.13894531 -33.31335938 25.56304687 -34 26 C-34.33 25.34 -34.66 24.68 -35 24 C-34.22398437 23.48614746 -33.44796875 22.97229492 -32.6484375 22.44287109 C-29.73227918 20.51022022 -26.81758345 18.57540083 -23.90380859 16.63916016 C-22.64949302 15.80627402 -21.39462323 14.97422183 -20.13916016 14.14306641 C-13.28556845 9.6049511 -6.50902254 5.02821991 0 0 Z " fill="#3DA34D" transform="translate(529,401)" data-index="38"></path>
<path d="M0 0 C11.34404827 5.46590751 22.22212757 11.4905919 33 18 C31.02 18.99 31.02 18.99 29 20 C28.67 19.34 28.34 18.68 28 18 C25.66156757 16.7223892 23.3356889 15.52838117 20.9375 14.375 C20.27427734 14.05015625 19.61105469 13.7253125 18.92773438 13.390625 C17.28778753 12.58834885 15.64422508 11.7934712 14 11 C14 10.34 14 9.68 14 9 C13.175 8.773125 12.35 8.54625 11.5 8.3125 C7.33490514 6.75058943 3.4999057 4.77149893 0 2 C0 1.34 0 0.68 0 0 Z " fill="#4488C8" transform="translate(376,405)" data-index="39" style="opacity: 1;"></path>
<path d="M0 0 C0 3.80672941 -0.75360239 4.91120329 -3 8 C-4.85378862 9.77981114 -6.77631806 11.43929506 -8.74609375 13.08984375 C-10.31361457 14.41829727 -11.84561908 15.78933828 -13.34765625 17.19140625 C-14.11980469 17.91199219 -14.89195312 18.63257813 -15.6875 19.375 C-16.39261719 20.04273438 -17.09773437 20.71046875 -17.82421875 21.3984375 C-20.250352 23.18428065 -22.03745666 23.63681605 -25 24 C-19.24036819 18.04838046 -13.07936548 12.4397697 -6.625 7.25 C-4.03387149 5.0290327 -2.0308629 2.73385391 0 0 Z " fill="#C7DA95" transform="translate(602,319)" data-index="40"></path>
<path d="M0 0 C0.33 0 0.66 0 1 0 C1.21914063 0.88300781 1.43828125 1.76601563 1.6640625 2.67578125 C4.31404179 12.70476791 7.76841536 22.2518736 15 30 C15.66 30.33 16.32 30.66 17 31 C17 31.66 17 32.32 17 33 C8.57455291 29.21307862 5.28251947 21.16294465 2 13 C1.566875 11.9275 1.13375 10.855 0.6875 9.75 C-0.14191876 6.43232494 -0.13622708 3.40567691 0 0 Z " fill="#4B85C0" transform="translate(304,358)" data-index="41" style="opacity: 1;"></path>
<path d="M0 0 C0.66 0.33 1.32 0.66 2 1 C-1.21968023 9.52268296 -6.46554972 20.73277486 -15 25 C-13.47722374 21.79022651 -11.67954049 18.85622697 -9.75 15.875 C-6.39239805 10.64502463 -3.16664381 5.34733625 0 0 Z " fill="#C5EC76" transform="translate(604,317)" data-index="42"></path>
<path d="M0 0 C1.98 0.66 3.96 1.32 6 2 C6 2.66 6 3.32 6 4 C7.31097656 4.38478516 7.31097656 4.38478516 8.6484375 4.77734375 C12.04817632 6.01757481 14.63310109 7.54402172 17.625 9.5625 C21.22042155 12.06105802 21.22042155 12.06105802 25.2734375 13.52734375 C25.84320312 13.68332031 26.41296875 13.83929688 27 14 C27.33 14.99 27.66 15.98 28 17 C21.87405804 15.35545182 16.69251083 12.15680519 11.25 9 C10.29222656 8.4534375 9.33445312 7.906875 8.34765625 7.34375 C1.27200997 3.27200997 1.27200997 3.27200997 -1 1 C-0.67 0.67 -0.34 0.34 0 0 Z " fill="#59ACCE" transform="translate(513,173)" data-index="43"></path>
<path d="M0 0 C0.9449231 0.48218994 0.9449231 0.48218994 1.90893555 0.97412109 C6.11848536 2.37120887 10.04787796 2.35558952 14.45703125 2.4140625 C15.35999435 2.43342865 16.26295746 2.4527948 17.19328308 2.4727478 C20.06626047 2.53234082 22.93927837 2.57884769 25.8125 2.625 C27.76499105 2.66319845 29.71746559 2.70225127 31.66992188 2.7421875 C36.44647984 2.83802569 41.22311667 2.92213152 46 3 C46 3.33 46 3.66 46 4 C40.09180929 4.04945048 34.18373916 4.08574364 28.27539062 4.10986328 C26.26560365 4.1199187 24.2558313 4.13356485 22.24609375 4.15087891 C19.35673412 4.17514724 16.46756798 4.18648771 13.578125 4.1953125 C12.68007141 4.20563507 11.78201782 4.21595764 10.85675049 4.22659302 C10.01618103 4.22674408 9.17561157 4.22689514 8.30957031 4.22705078 C7.20370575 4.23371262 7.20370575 4.23371262 6.07550049 4.24050903 C3.69480274 3.96463374 2.06983569 3.17901432 0 2 C0 1.34 0 0.68 0 0 Z " fill="#003314" transform="translate(514,304)" data-index="44"></path>
<path d="M0 0 C-6.21079046 3.2163022 -12.35839307 5.78613102 -19 8 C-19.33 8.66 -19.66 9.32 -20 10 C-20.99 9.34 -21.98 8.68 -23 8 C-19.722736 4.35321557 -16.03947709 3.31115573 -11.5 1.75 C-10.72785156 1.46898437 -9.95570313 1.18796875 -9.16015625 0.8984375 C-8.41636719 0.63804687 -7.67257812 0.37765625 -6.90625 0.109375 C-6.22884766 -0.12813477 -5.55144531 -0.36564453 -4.85351562 -0.61035156 C-3 -1 -3 -1 0 0 Z " fill="#3C9D6D" transform="translate(425,431)" data-index="45"></path>
<path d="M0 0 C-3.76840198 2.15012454 -7.54012276 4.29435886 -11.3125 6.4375 C-12.9202832 7.35499023 -12.9202832 7.35499023 -14.56054688 8.29101562 C-15.58857422 8.87431641 -16.61660156 9.45761719 -17.67578125 10.05859375 C-19.0975769 10.86768188 -19.0975769 10.86768188 -20.5480957 11.69311523 C-23 13 -23 13 -26 14 C-26 13.34 -26 12.68 -26 12 C-22.16420952 9.402641 -18.04439924 7.25517192 -14 5 C-12.96359375 4.39671875 -11.9271875 3.7934375 -10.859375 3.171875 C-9.89515625 2.62015625 -8.9309375 2.0684375 -7.9375 1.5 C-7.05964844 0.9946875 -6.18179688 0.489375 -5.27734375 -0.03125 C-3 -1 -3 -1 0 0 Z " fill="#43A062" transform="translate(570,410)" data-index="46"></path>
<path d="M0 0 C0 0.99 0 1.98 0 3 C-0.556875 3.226875 -1.11375 3.45375 -1.6875 3.6875 C-4.17347712 4.96295 -4.17347712 4.96295 -6.375 7.375 C-9.08410429 10.08410429 -11.66566503 12.11537589 -15 14 C-15.99 13.67 -16.98 13.34 -18 13 C-17.01 12.67 -16.02 12.34 -15 12 C-14.74476563 11.40703125 -14.48953125 10.8140625 -14.2265625 10.203125 C-12.41706083 6.95293729 -9.50627878 5.55650699 -6.375 3.75 C-5.76398437 3.38648438 -5.15296875 3.02296875 -4.5234375 2.6484375 C-3.02106273 1.75640248 -1.51123449 0.87694171 0 0 Z " fill="#BDD875" transform="translate(544,365)" data-index="47"></path>
<path d="M0 0 C0.99 0.33 1.98 0.66 3 1 C-6.98148148 11.38888889 -6.98148148 11.38888889 -13 15 C-13.99 14.67 -14.98 14.34 -16 14 C-15.34 14 -14.68 14 -14 14 C-14 13.34 -14 12.68 -14 12 C-12.13671875 10.37890625 -12.13671875 10.37890625 -9.6875 8.5625 C-6.36091496 6.09023023 -6.36091496 6.09023023 -3.33203125 3.27734375 C-2 2 -2 2 0 2 C0 1.34 0 0.68 0 0 Z " fill="#12170A" transform="translate(591,327)" data-index="48"></path>
<path d="M0 0 C4.91441412 1.43652105 9.00238358 3.54159615 13.375 6.125 C14.01566406 6.49753906 14.65632812 6.87007812 15.31640625 7.25390625 C16.88048477 8.16434002 18.44065534 9.08148191 20 10 C15.41201223 11.53271273 13.22055258 10.02911182 9 8 C9 7.34 9 6.68 9 6 C8.01 6 7.02 6 6 6 C6 5.34 6 4.68 6 4 C5.071875 3.7834375 5.071875 3.7834375 4.125 3.5625 C2 3 2 3 0 2 C0 1.34 0 0.68 0 0 Z " fill="#54B2DB" transform="translate(559,181)" data-index="49"></path>
<path d="M0 0 C0.66 0.33 1.32 0.66 2 1 C-0.22493565 3.25421705 -2.45569373 5.50258669 -4.6875 7.75 C-5.62625977 8.70132812 -5.62625977 8.70132812 -6.58398438 9.671875 C-9.90760063 13.01289239 -13.23370411 16.1482731 -17 19 C-17.66 18.67 -18.32 18.34 -19 18 C-17.88121617 16.82737096 -16.75476949 15.66204862 -15.625 14.5 C-14.99851562 13.8503125 -14.37203125 13.200625 -13.7265625 12.53125 C-12 11 -12 11 -10 11 C-10 10.34 -10 9.68 -10 9 C-8.3203125 7.34375 -8.3203125 7.34375 -6.125 5.5 C-4.00964496 3.71066742 -1.95980876 1.95980876 0 0 Z " fill="#ACE06B" transform="translate(563,369)" data-index="50"></path>
<path d="M0 0 C0.5259375 0.23203125 1.051875 0.4640625 1.59375 0.703125 C-0.58594233 2.03028857 -2.77356621 3.33952822 -4.96875 4.640625 C-5.88237305 5.20040039 -5.88237305 5.20040039 -6.81445312 5.77148438 C-11.07381987 8.27301723 -14.47697433 9.303454 -19.40625 9.703125 C-16.09607507 7.07445667 -12.59972927 5.00317542 -8.90625 2.953125 C-7.22015625 2.00179687 -7.22015625 2.00179687 -5.5 1.03125 C-2.40625 -0.296875 -2.40625 -0.296875 0 0 Z " fill="#56B4DE" transform="translate(386.40625,166.296875)" data-index="51"></path>
<path d="M0 0 C0 0.66 0 1.32 0 2 C-6.6 5.63 -13.2 9.26 -20 13 C-20 12.01 -20 11.02 -20 10 C-19.11957031 9.52949219 -18.23914063 9.05898438 -17.33203125 8.57421875 C-16.17058594 7.95160156 -15.00914062 7.32898438 -13.8125 6.6875 C-12.66394531 6.07261719 -11.51539063 5.45773437 -10.33203125 4.82421875 C-8.25946968 3.68953381 -6.20933547 2.51148621 -4.19921875 1.26953125 C-2 0 -2 0 0 0 Z " fill="#35935B" transform="translate(544,423)" data-index="52"></path>
<path d="M0 0 C-2.73354237 2.73354237 -5.27785213 2.72579003 -9.00390625 3.33984375 C-9.99197266 3.66662109 -9.99197266 3.66662109 -11 4 C-11.33 4.99 -11.66 5.98 -12 7 C-15.3 5.35 -18.6 3.7 -22 2 C-17.82412255 0.60804085 -15.86525224 2.17676781 -12 4 C-12 3.34 -12 2.68 -12 2 C-7.8794254 0.00214565 -4.54805635 -0.17835515 0 0 Z " fill="#387490" transform="translate(414,433)" data-index="53"></path>
<path d="M0 0 C0.72265625 1.6875 0.72265625 1.6875 1 4 C-2.46009437 9.85121649 -7.04718712 14.72595292 -13 18 C-13 17.01 -13 16.02 -13 15 C-11.42578125 13.45703125 -11.42578125 13.45703125 -9.3125 11.8125 C-5.16477407 8.36465678 -2.54933163 4.7187148 0 0 Z " fill="#5AB163" transform="translate(606,378)" data-index="54"></path>
<path d="M0 0 C0.66 0.33 1.32 0.66 2 1 C-0.74070665 3.3237009 -3.49404776 5.63191069 -6.25 7.9375 C-7.02730469 8.59685547 -7.80460938 9.25621094 -8.60546875 9.93554688 C-9.35957031 10.56396484 -10.11367188 11.19238281 -10.890625 11.83984375 C-11.58188477 12.42113037 -12.27314453 13.00241699 -12.98535156 13.60131836 C-15.03078381 15.02137185 -16.56605315 15.57763864 -19 16 C-18.67 15.34 -18.34 14.68 -18 14 C-17.34 14 -16.68 14 -16 14 C-16 13.34 -16 12.68 -16 12 C-14.53125 10.703125 -14.53125 10.703125 -12.5 9.25 C-11.778125 8.72664063 -11.05625 8.20328125 -10.3125 7.6640625 C-9.549375 7.11492187 -8.78625 6.56578125 -8 6 C-6.49756714 4.87825114 -4.99742907 3.75341977 -3.5 2.625 C-1.75 1.3125 -1.75 1.3125 0 0 Z " fill="#89D461" transform="translate(543,388)" data-index="55"></path>
<path d="M0 0 C0.33 0 0.66 0 1 0 C1.08074203 2.62561109 1.1403623 5.24875676 1.1875 7.875 C1.22520508 8.99455078 1.22520508 8.99455078 1.26367188 10.13671875 C1.29296875 12.3046875 1.29296875 12.3046875 1 16 C0.01 16.66 -0.98 17.32 -2 18 C-2.99 17.34 -3.98 16.68 -5 16 C-4.01 15.67 -3.02 15.34 -2 15 C-1.93941406 14.08476562 -1.87882813 13.16953125 -1.81640625 12.2265625 C-1.69072266 10.44378906 -1.69072266 10.44378906 -1.5625 8.625 C-1.48128906 7.44164062 -1.40007813 6.25828125 -1.31640625 5.0390625 C-1 2 -1 2 0 0 Z " fill="#5EC367" transform="translate(568,284)" data-index="56"></path>
<path d="M0 0 C5.51568187 1.53311285 10.02034852 4.18752444 14.875 7.125 C16.050625 7.82689453 16.050625 7.82689453 17.25 8.54296875 C19.16982472 9.69018108 21.08630561 10.8426007 23 12 C22.34 12.66 21.68 13.32 21 14 C20.48953125 13.64808594 19.9790625 13.29617187 19.453125 12.93359375 C13.88358581 9.15144214 8.16846432 5.73197795 2.30859375 2.41796875 C1.54675781 1.95003906 0.78492188 1.48210937 0 1 C0 0.67 0 0.34 0 0 Z " fill="#549DC1" transform="translate(564,203)" data-index="57"></path>
<path d="M0 0 C0.99 0.66 1.98 1.32 3 2 C-9.48519362 7.55580866 -9.48519362 7.55580866 -16 8 C-13.39169613 5.39169613 -10.39112078 4.20395771 -7.0625 2.75 C-6.11213867 2.30914062 -6.11213867 2.30914062 -5.14257812 1.859375 C-3.28515625 1.046875 -3.28515625 1.046875 0 0 Z " fill="#45975D" transform="translate(439,422)" data-index="58"></path>
<path d="M0 0 C1.86637148 3.73274296 2.22728889 4.65053164 2.0625 8.5 C1.96559923 10.96043703 1.91590126 12.74241757 2.68359375 15.09375 C2.78800781 15.7228125 2.89242187 16.351875 3 17 C2.01 17.99 1.02 18.98 0 20 C0 13.4 0 6.8 0 0 Z " fill="#4575A2" transform="translate(597,305)" data-index="59"></path>
<path d="M0 0 C0 0.66 0 1.32 0 2 C-0.76183594 2.10957031 -1.52367187 2.21914062 -2.30859375 2.33203125 C-8.83677611 3.33448622 -14.79917763 4.72636513 -21 7 C-20 4 -20 4 -18.34765625 2.8828125 C-15.39593353 1.77284688 -12.55810671 1.32232246 -9.4375 0.875 C-8.30183594 0.70742187 -7.16617187 0.53984375 -5.99609375 0.3671875 C-3 0 -3 0 0 0 Z " fill="#5FCDDE" transform="translate(463,147)" data-index="60"></path>
<path d="M0 0 C5.89889027 0.35393342 8.90482848 1.71435539 13 6 C14.375 9.3125 14.375 9.3125 15 12 C14.34 12 13.68 12 13 12 C12.566875 11.2575 12.13375 10.515 11.6875 9.75 C8.81230661 5.06449966 5.13605219 2.76093218 0 1 C0 0.67 0 0.34 0 0 Z " fill="#5CC4DF" transform="translate(378,255)" data-index="61"></path>
<path d="M0 0 C2.27467581 1.09677235 4.54454524 2.20198422 6.8125 3.3125 C7.45509766 3.62123047 8.09769531 3.92996094 8.75976562 4.24804688 C11.95607616 5.82136035 14.70577107 7.22816208 17 10 C15.68 10.33 14.36 10.66 13 11 C13 10.34 13 9.68 13 9 C12.34 9 11.68 9 11 9 C11 8.34 11 7.68 11 7 C10.484375 6.9175 9.96875 6.835 9.4375 6.75 C5.95544268 5.67859775 3.12799115 3.86476395 0 2 C0 1.34 0 0.68 0 0 Z " fill="#458BCB" transform="translate(337,383)" data-index="62" style="opacity: 1;"></path>
<path d="M0 0 C0.33 0.99 0.66 1.98 1 3 C-1.31989611 6.35096105 -4.07157569 9.17616228 -7 12 C-7.75 10.3125 -7.75 10.3125 -8 8 C-6.25 5.25 -6.25 5.25 -4 3 C-3.01 3 -2.02 3 -1 3 C-0.67 2.01 -0.34 1.02 0 0 Z " fill="#AFDB6D" transform="translate(612,308)" data-index="63"></path>
<path d="M0 0 C1.32 0.33 2.64 0.66 4 1 C1.36 3.64 -1.28 6.28 -4 9 C-4.99 8.67 -5.98 8.34 -7 8 C-4.69 5.36 -2.38 2.72 0 0 Z " fill="#4AA1D0" transform="translate(320,203)" data-index="64"></path>
<path d="M0 0 C0.66 0.99 1.32 1.98 2 3 C1.390625 5.8828125 1.390625 5.8828125 0.25 9.125 C-0.11609375 10.20007813 -0.4821875 11.27515625 -0.859375 12.3828125 C-2 15 -2 15 -4 16 C-3.39891424 10.34979382 -1.92471317 5.33835539 0 0 Z " fill="#6DBB65" transform="translate(612,362)" data-index="65"></path>
<path d="M0 0 C-1.95519384 1.17192047 -3.9142539 2.3373929 -5.875 3.5 C-6.96554687 4.1496875 -8.05609375 4.799375 -9.1796875 5.46875 C-12 7 -12 7 -14 7 C-14 6.34 -14 5.68 -14 5 C-13.01 5 -12.02 5 -11 5 C-10.67 4.01 -10.34 3.02 -10 2 C-8.22265625 1.015625 -8.22265625 1.015625 -6.0625 0.25 C-5.35222656 -0.01296875 -4.64195312 -0.2759375 -3.91015625 -0.546875 C-2 -1 -2 -1 0 0 Z " fill="#4CAA63" transform="translate(584,402)" data-index="66"></path>
<path d="M0 0 C0.33 0.66 0.66 1.32 1 2 C-4.445 5.96 -4.445 5.96 -10 10 C-10.66 9.67 -11.32 9.34 -12 9 C-8.32442148 4.99027798 -4.81033104 2.54664585 0 0 Z " fill="#A6CA6C" transform="translate(528,375)" data-index="67"></path>
<path d="M0 0 C3.26460973 1.80412643 4.88929795 2.83394693 7 6 C7.07905064 8.33199388 7.08798769 10.66832622 7 13 C4.7448078 10.7448078 4.02276532 8.9952413 3 6 C3 5.01 3 4.02 3 3 C2.01 3 1.02 3 0 3 C0 2.01 0 1.02 0 0 Z " fill="#B7E474" transform="translate(562,250)" data-index="68"></path>
<path d="M0 0 C0 0.99 0 1.98 0 3 C-1.8984375 4.60546875 -1.8984375 4.60546875 -4.375 6.1875 C-5.18710937 6.71730469 -5.99921875 7.24710938 -6.8359375 7.79296875 C-9 9 -9 9 -11 9 C-9.55613418 5.28720216 -7.87763608 4.0513557 -4.375 2.25 C-3.55773437 1.82203125 -2.74046875 1.3940625 -1.8984375 0.953125 C-0.95871094 0.48132813 -0.95871094 0.48132813 0 0 Z " fill="#58B0D7" transform="translate(401,156)" data-index="69"></path>
<path d="M0 0 C4.30764815 1.56641751 8.06171464 3.68336156 12 6 C10.02 6.99 10.02 6.99 8 8 C7.67 7.34 7.34 6.68 7 6 C5.34948712 4.88365848 5.34948712 4.88365848 3.4375 3.875 C2.303125 3.25625 1.16875 2.6375 0 2 C0 1.34 0 0.68 0 0 Z " fill="#4181BD" transform="translate(397,417)" data-index="70" style="opacity: 1;"></path>
<path d="M0 0 C0.99 0.33 1.98 0.66 3 1 C-4.11389522 7.70387244 -4.11389522 7.70387244 -9 8 C-2.92207792 1.75324675 -2.92207792 1.75324675 0 0 Z " fill="#D2DF91" transform="translate(586,335)" data-index="71"></path>
<path d="M0 0 C0.70189453 0.00451172 1.40378906 0.00902344 2.12695312 0.01367188 C3.85550538 0.02543073 5.58401365 0.04336546 7.3125 0.0625 C7.3125 0.3925 7.3125 0.7225 7.3125 1.0625 C5.92224609 1.15337891 5.92224609 1.15337891 4.50390625 1.24609375 C2.70759766 1.37177734 2.70759766 1.37177734 0.875 1.5 C-0.31996094 1.58121094 -1.51492188 1.66242188 -2.74609375 1.74609375 C-5.57320244 1.73906114 -5.57320244 1.73906114 -6.6875 3.0625 C-9.02047433 3.10342937 -11.35455225 3.10491723 -13.6875 3.0625 C-9.06453806 -0.01947463 -5.37263877 -0.0652141 0 0 Z " fill="#08323F" transform="translate(458.6875,149.9375)" data-index="72"></path>
<path d="M0 0 C0.33 0.99 0.66 1.98 1 3 C-3.95 5.475 -3.95 5.475 -9 8 C-9 7.01 -9 6.02 -9 5 C-6.03 3.35 -3.06 1.7 0 0 Z " fill="#8DBF6A" transform="translate(502,390)" data-index="73"></path>
<path d="M0 0 C4.75481646 0.57634139 7.97048212 2.55068521 12 5 C11.67 6.32 11.34 7.64 11 9 C10.67 8.01 10.34 7.02 10 6 C8.25132517 4.91568906 8.25132517 4.91568906 6 4 C4 3 2 2 0 1 C0 0.67 0 0.34 0 0 Z " fill="#55B6E2" transform="translate(579,193)" data-index="74"></path>
<path d="M0 0 C0.66 0.33 1.32 0.66 2 1 C-0.43969017 5.78902145 -1.97529326 8.62722182 -7 11 C-5.22054913 6.95579349 -2.60470327 3.53921513 0 0 Z " fill="#B9E572" transform="translate(596,331)" data-index="75"></path>
<path d="M0 0 C3.3 1.65 6.6 3.3 10 5 C10 5.66 10 6.32 10 7 C6.00118212 6.38479725 3.19641774 4.39731331 0 2 C0 1.34 0 0.68 0 0 Z " fill="#56BAE1" transform="translate(542,171)" data-index="76"></path>
<path d="M0 0 C-3.1254959 2.64465038 -6.08788267 3.84414715 -10 5 C-9 2 -9 2 -6.125 0.25 C-3 -1 -3 -1 0 0 Z " fill="#5DA15B" transform="translate(463,413)" data-index="77"></path>
<path d="M0 0 C0.66 0.33 1.32 0.66 2 1 C-4.07439825 6.88183807 -4.07439825 6.88183807 -7.9375 7.375 C-8.618125 7.25125 -9.29875 7.1275 -10 7 C-6.76478258 4.51137122 -3.40739705 2.24578442 0 0 Z " fill="#468DBE" transform="translate(389,294)" data-index="78"></path>
<path d="M0 0 C0.66 0.66 1.32 1.32 2 2 C-0.88406243 5.40843742 -2.3708265 6.86591384 -6.8125 7.8125 C-8.3903125 7.9053125 -8.3903125 7.9053125 -10 8 C-9.4225 7.731875 -8.845 7.46375 -8.25 7.1875 C-5.94252104 6.04946754 -5.94252104 6.04946754 -3.875 4.375 C-2 3 -2 3 0 3 C0 2.01 0 1.02 0 0 Z " fill="#4CA467" transform="translate(567,299)" data-index="79"></path>
<path d="M0 0 C0.66 0.33 1.32 0.66 2 1 C-0.51830747 4.12270126 -1.7261549 4.94523098 -5.75 5.75 C-7.35875 5.87375 -7.35875 5.87375 -9 6 C-6.12050853 3.76039553 -3.23257974 1.70135776 0 0 Z " fill="#53A5CB" transform="translate(376,170)" data-index="80"></path>
<path d="M0 0 C0 0.66 0 1.32 0 2 C-6.45 6.09326923 -6.45 6.09326923 -9.234375 5.62109375 C-9.81703125 5.41613281 -10.3996875 5.21117187 -11 5 C-9.54462432 4.16151196 -8.08559627 3.32936066 -6.625 2.5 C-5.81289063 2.0359375 -5.00078125 1.571875 -4.1640625 1.09375 C-2 0 -2 0 0 0 Z " fill="#072B3D" transform="translate(367,197)" data-index="81"></path>
<path d="M0 0 C0.9590625 0.4640625 0.9590625 0.4640625 1.9375 0.9375 C5.92049104 2.31935403 9.81650849 2.6536543 14 3 C14 3.33 14 3.66 14 4 C12.41705218 4.05437607 10.83355744 4.09296271 9.25 4.125 C8.36828125 4.14820313 7.4865625 4.17140625 6.578125 4.1953125 C3.8864142 3.99139502 2.30095026 3.36551721 0 2 C0 1.34 0 0.68 0 0 Z " fill="#042715" transform="translate(514,304)" data-index="82"></path>
<path d="M0 0 C0.433125 0.639375 0.86625 1.27875 1.3125 1.9375 C2.91239177 4.26746003 2.91239177 4.26746003 6 5 C6.33 5.99 6.66 6.98 7 8 C3.74456771 7.65120368 2.98126893 6.97866739 0.75 4.4375 C-0.11625 3.2309375 -0.11625 3.2309375 -1 2 C-0.67 1.34 -0.34 0.68 0 0 Z " fill="#61BC6C" transform="translate(513,298)" data-index="83"></path>
<path d="M0 0 C0.6875 1.75 0.6875 1.75 1 4 C0.03542166 5.35917857 -0.96854629 6.69084721 -2 8 C-2.71433121 10.64934822 -2.71433121 10.64934822 -3 13 C-3.33 13 -3.66 13 -4 13 C-4.5497272 7.36529617 -2.95047835 4.61012242 0 0 Z " fill="#58AFD4" transform="translate(352,262)" data-index="84"></path>
<path d="M0 0 C2.64 0 5.28 0 8 0 C8 0.66 8 1.32 8 2 C8.66 2 9.32 2 10 2 C9.67 2.66 9.34 3.32 9 4 C6.03 3.01 3.06 2.02 0 1 C0 0.67 0 0.34 0 0 Z " fill="#59B9CD" transform="translate(464,149)" data-index="85"></path>
<path d="M0 0 C0.66 0.33 1.32 0.66 2 1 C-0.31 2.65 -2.62 4.3 -5 6 C-5.66 5.67 -6.32 5.34 -7 5 C-4.88437775 2.67281553 -2.94982021 1.14186589 0 0 Z " fill="#249A54" transform="translate(459,444)" data-index="86" style="opacity: 1;"></path>
<path d="M0 0 C2.25 0.25 2.25 0.25 4 1 C2.02 2.32 0.04 3.64 -2 5 C-2.66 4.67 -3.32 4.34 -4 4 C-2.25 1.9375 -2.25 1.9375 0 0 Z " fill="#D0EC6D" transform="translate(542,368)" data-index="87"></path>
<path d="M0 0 C0.99 0.33 1.98 0.66 3 1 C1.35 2.65 -0.3 4.3 -2 6 C-2.99 5.67 -3.98 5.34 -5 5 C-3.625 3.5 -3.625 3.5 -2 2 C-1.34 2 -0.68 2 0 2 C0 1.34 0 0.68 0 0 Z " fill="#060B03" transform="translate(591,327)" data-index="88"></path>
<path d="M0 0 C0.66 0.33 1.32 0.66 2 1 C0.515 4.465 0.515 4.465 -1 8 C-1.66 8 -2.32 8 -3 8 C-2.37240135 5.07120629 -1.41377341 2.63904371 0 0 Z " fill="#4283A4" transform="translate(612,299)" data-index="89"></path>
<path d="M0 0 C1.11375 0.3403125 1.11375 0.3403125 2.25 0.6875 C-1.1852048 2.97763653 -2.735331 2.86592973 -6.75 2.6875 C-4.29511132 0.41445492 -3.41240272 -0.38777304 0 0 Z " fill="#5EBDD7" transform="translate(365.75,254.3125)" data-index="90"></path>
</svg>